<?xml version="1.0" encoding="utf-8"?>
<!-- Generator: Adobe Illustrator 23.1.1, SVG Export Plug-In . SVG Version: 6.00 Build 0)  -->
<svg version="1.1" id="Layer_1" xmlns="http://www.w3.org/2000/svg" xmlns:xlink="http://www.w3.org/1999/xlink" x="0px" y="0px"
	 viewBox="0 0 1350 28" style="enable-background:new 0 0 1350 28;" xml:space="preserve">
<style type="text/css">
	.st0{fill-rule:evenodd;clip-rule:evenodd;fill:#FFFFFF;stroke:#9AA0A6;stroke-width:0.5;}
	.st1{fill-rule:evenodd;clip-rule:evenodd;fill:url(#XMLID_2_);}
	.st2{fill:none;}
	.st3{fill:#FFFFFF;}
	.st4{fill:#5F6368;}
	.st5{fill:#3C4043;}
	.st6{fill-rule:evenodd;clip-rule:evenodd;fill:#1DD760;}
	.st7{fill-rule:evenodd;clip-rule:evenodd;fill:#F5A623;}
	.st8{fill-rule:evenodd;clip-rule:evenodd;fill:#FAB908;}
	.st9{fill-rule:evenodd;clip-rule:evenodd;fill:#0066D9;}
	.st10{fill-rule:evenodd;clip-rule:evenodd;fill:#4285F4;}
	.st11{fill-rule:evenodd;clip-rule:evenodd;fill:#EA4335;}
	.st12{fill-rule:evenodd;clip-rule:evenodd;fill:#34A853;}
	.st13{fill-rule:evenodd;clip-rule:evenodd;fill:#FD9B5A;}
	.st14{fill-rule:evenodd;clip-rule:evenodd;fill:#FFFFFE;}
	.st15{fill-rule:evenodd;clip-rule:evenodd;fill:#FFFFFF;}
	.st16{fill-rule:evenodd;clip-rule:evenodd;fill:#3392C5;}
	.st17{fill-rule:evenodd;clip-rule:evenodd;fill:#622268;}
	.st18{fill-rule:evenodd;clip-rule:evenodd;fill:#FBC818;}
	.st19{fill-rule:evenodd;clip-rule:evenodd;fill:#EC8A22;}
	.st20{fill-rule:evenodd;clip-rule:evenodd;fill:#C53726;}
	.st21{fill-rule:evenodd;clip-rule:evenodd;fill:#36B4A7;}
	.st22{fill-rule:evenodd;clip-rule:evenodd;}
</style>
<title>listen_on</title>
<desc>Created with Sketch.</desc>
<path id="Path" class="st0" d="M-1.1,33c-0.3,0-0.6,0-0.9,0c-0.6,0-1.3,0-2-0.2c-0.6-0.1-1.2-0.3-1.7-0.6s-1-0.6-1.5-1.1
	c-0.4-0.4-0.8-0.9-1.1-1.5c-0.3-0.5-0.5-1.1-0.6-1.7c0-0.6-0.1-1.3-0.1-1.9c0-0.2,0-1,0-1V0.9c0,0,0-0.7,0-0.9c0-0.5,0-1.3,0.2-2
	c0.1-0.6,0.3-1.2,0.6-1.7s0.6-1,1.1-1.5c0.4-0.4,0.8-0.8,1.4-1C-5.2-6.5-4.6-6.7-4-6.8C-3.3-6.9-2.6-7-2-7h0.9H145h1
	c0.5,0,1.3,0,1.9,0.2c0.6,0.1,1.2,0.3,1.8,0.6c0.5,0.3,1,0.6,1.5,1.1c0.4,0.4,0.8,0.9,1.1,1.5c0.3,0.5,0.5,1.1,0.6,1.7
	c0.1,0.7,0.2,1.3,0.2,2c0,0.3,0,0.6,0,0.9c0,0.4,0,0.8,0,1.1V24c0,0.4,0,0.8,0,1.1c0,0.3,0,0.7,0,1c0,0.6-0.1,1.3-0.2,1.9
	c-0.1,0.6-0.3,1.2-0.6,1.7s-0.6,1-1.1,1.4c-0.4,0.4-0.9,0.8-1.5,1.1c-0.5,0.3-1.1,0.5-1.7,0.6c-0.7,0.1-1.4,0.2-2,0.2
	c-0.3,0-0.6,0-0.9,0H144H-1.1z"/>
<path id="Path-Copy-3" class="st0" d="M475.9,33c-0.3,0-0.6,0-0.9,0c-0.6,0-1.3,0-2-0.2c-0.6-0.1-1.2-0.3-1.7-0.6s-1-0.6-1.5-1.1
	c-0.4-0.4-0.8-0.9-1.1-1.5c-0.3-0.5-0.5-1.1-0.6-1.7c-0.1-0.7-0.2-1.4-0.2-2c0-0.2,0-1,0-1v-24c0,0,0-0.7,0-0.9c0-0.5,0-1.3,0.2-2
	c0.1-0.6,0.3-1.2,0.6-1.7c0.3-0.5,0.6-1,1.1-1.5c0.4-0.4,0.9-0.8,1.5-1.1c0.5-0.3,1.1-0.5,1.7-0.6c0.7-0.1,1.4-0.2,2-0.2h0.9H632h1
	c0.5,0,1.3,0,1.9,0.2c0.6,0.1,1.2,0.3,1.8,0.6c0.5,0.3,1,0.6,1.5,1.1c0.4,0.4,0.8,0.9,1.1,1.5c0.3,0.5,0.5,1.1,0.6,1.7
	c0.1,0.7,0.2,1.3,0.2,2c0,0.3,0,0.6,0,0.9c0,0.4,0,0.8,0,1.1v21.9c0,0.4,0,0.8,0,1.1c0,0.3,0,0.7,0,1c0,0.6-0.1,1.3-0.2,1.9
	c-0.1,0.6-0.3,1.2-0.6,1.7s-0.6,1-1.1,1.4c-0.4,0.4-0.9,0.8-1.5,1.1c-0.5,0.3-1.1,0.5-1.7,0.6c-0.7,0.1-1.4,0.2-2,0.2
	c-0.3,0-0.6,0-0.9,0H631L475.9,33z"/>
<path id="Path-Copy-4" class="st0" d="M677.9,33c-0.3,0-0.6,0-0.9,0c-0.6,0-1.3,0-2-0.2c-0.6-0.1-1.2-0.3-1.7-0.6s-1-0.6-1.5-1.1
	c-0.4-0.4-0.8-0.9-1.1-1.5c-0.3-0.5-0.5-1.1-0.6-1.7c-0.1-0.7-0.2-1.4-0.2-2c0-0.2,0-1,0-1v-24c0,0,0-0.7,0-0.9c0-0.5,0-1.3,0.2-2
	c0.1-0.6,0.3-1.2,0.6-1.7s0.6-1,1.1-1.5c0.4-0.4,0.9-0.8,1.5-1.1c0.5-0.3,1.1-0.5,1.7-0.6c0.7-0.1,1.4-0.2,2-0.2h0.9H768h1
	c0.5,0,1.3,0,1.9,0.2c0.6,0.1,1.2,0.3,1.8,0.6c0.5,0.3,1,0.6,1.5,1.1c0.4,0.4,0.8,0.9,1.1,1.5c0.3,0.5,0.5,1.1,0.6,1.7
	c0.1,0.7,0.2,1.3,0.2,2c0,0.3,0,0.6,0,0.9c0,0.4,0,0.8,0,1.1v21.9c0,0.4,0,0.8,0,1.1c0,0.3,0,0.7,0,1c0,0.6-0.1,1.3-0.2,1.9
	c-0.1,0.6-0.3,1.2-0.6,1.7s-0.6,1-1.1,1.4c-0.4,0.4-0.9,0.8-1.5,1.1c-0.5,0.3-1.1,0.5-1.7,0.6c-0.7,0.1-1.4,0.2-2,0.2
	c-0.3,0-0.6,0-0.9,0H767L677.9,33z"/>
<path id="Path-Copy-5" class="st0" d="M813.9,33c-0.3,0-0.6,0-0.9,0c-0.6,0-1.3,0-2-0.2c-0.6-0.1-1.2-0.3-1.7-0.6s-1-0.6-1.5-1.1
	c-0.4-0.4-0.8-0.9-1.1-1.5c-0.3-0.5-0.5-1.1-0.6-1.7c-0.1-0.7-0.2-1.4-0.2-2c0-0.2,0-1,0-1v-24c0,0,0-0.7,0-0.9c0-0.5,0-1.3,0.2-2
	c0.1-0.6,0.3-1.2,0.6-1.7s0.6-1,1.1-1.5c0.4-0.4,0.9-0.8,1.5-1.1c0.5-0.3,1.1-0.5,1.7-0.6c0.7-0.1,1.4-0.2,2-0.2h0.9H912h1
	c0.5,0,1.3,0,1.9,0.2c0.6,0.1,1.2,0.3,1.8,0.6c0.5,0.3,1,0.6,1.5,1.1c0.4,0.4,0.8,0.9,1.1,1.5c0.3,0.5,0.5,1.1,0.6,1.7
	c0.1,0.7,0.2,1.3,0.2,2c0,0.3,0,0.6,0,0.9c0,0.4,0,0.8,0,1.1v21.9c0,0.4,0,0.8,0,1.1c0,0.3,0,0.7,0,1c0,0.6-0.1,1.3-0.2,1.9
	c-0.1,0.6-0.3,1.2-0.6,1.7s-0.6,1-1.1,1.4c-0.4,0.4-0.9,0.8-1.5,1.1c-0.5,0.3-1.1,0.5-1.7,0.6c-0.7,0.1-1.4,0.2-2,0.2
	c-0.3,0-0.6,0-0.9,0H911L813.9,33z"/>
<path id="Path-Copy-6" class="st0" d="M957.9,33c-0.3,0-0.6,0-0.9,0c-0.6,0-1.3,0-2-0.2c-0.6-0.1-1.2-0.3-1.7-0.6s-1-0.6-1.5-1.1
	c-0.4-0.4-0.8-0.9-1.1-1.5c-0.3-0.5-0.5-1.1-0.6-1.7c-0.1-0.7-0.2-1.4-0.2-2c0-0.2,0-1,0-1v-24c0,0,0-0.7,0-0.9c0-0.5,0-1.3,0.2-2
	c0.1-0.6,0.3-1.2,0.6-1.7s0.6-1,1.1-1.5c0.4-0.4,0.9-0.8,1.5-1.1c0.5-0.3,1.1-0.5,1.7-0.6c0.7-0.1,1.4-0.2,2-0.2h0.9h93.1h1
	c0.5,0,1.3,0,1.9,0.2c0.6,0.1,1.2,0.3,1.8,0.6c0.5,0.3,1,0.6,1.5,1.1c0.4,0.4,0.8,0.9,1.1,1.5c0.3,0.5,0.5,1.1,0.6,1.7
	c0.1,0.7,0.2,1.3,0.2,2c0,0.3,0,0.6,0,0.9c0,0.4,0,0.8,0,1.1v21.9c0,0.4,0,0.8,0,1.1c0,0.3,0,0.7,0,1c0,0.6-0.1,1.3-0.2,1.9
	s-0.3,1.2-0.6,1.7c-0.3,0.5-0.6,1-1.1,1.4c-0.4,0.4-0.9,0.8-1.5,1.1c-0.5,0.3-1.1,0.5-1.7,0.6c-0.7,0.1-1.4,0.2-2,0.2
	c-0.3,0-0.6,0-0.9,0h-1.1L957.9,33z"/>
<path id="Path-Copy" class="st0" d="M190.9,33c-0.3,0-0.6,0-0.9,0c-0.6,0-1.3,0-2-0.2c-0.6-0.1-1.2-0.3-1.7-0.6s-1-0.6-1.5-1.1
	c-0.4-0.4-0.8-0.9-1.1-1.5c-0.3-0.5-0.5-1.1-0.6-1.7c-0.1-0.7-0.2-1.4-0.2-2c0-0.2,0-1,0-1v-24c0,0,0-0.7,0-0.9c0-0.5,0-1.3,0.2-2
	c0.1-0.6,0.3-1.2,0.6-1.7s0.6-1,1.1-1.5c0.4-0.4,0.9-0.8,1.5-1.1c0.5-0.3,1.1-0.5,1.7-0.6c0.7-0.1,1.4-0.2,2-0.2h0.9H281h1
	c0.5,0,1.3,0,1.9,0.2c0.6,0.1,1.2,0.3,1.8,0.6c0.5,0.3,1,0.6,1.5,1.1c0.4,0.4,0.8,0.9,1.1,1.5c0.3,0.5,0.5,1.1,0.6,1.7
	c0.1,0.7,0.2,1.3,0.2,2c0,0.3,0,0.6,0,0.9c0,0.4,0,0.8,0,1.1v21.9c0,0.4,0,0.8,0,1.1c0,0.3,0,0.7,0,1c0,0.6-0.1,1.3-0.2,1.9
	s-0.3,1.2-0.6,1.7c-0.3,0.5-0.6,1-1.1,1.4c-0.4,0.4-0.9,0.8-1.5,1.1c-0.5,0.3-1.1,0.5-1.7,0.6c-0.7,0.1-1.4,0.2-2,0.2
	c-0.3,0-0.6,0-0.9,0H280L190.9,33z"/>
<path id="Path-Copy-2" class="st0" d="M327.9,33c-0.4,0-0.7,0-1.1,0c-0.7,0-1.4,0-2.2-0.2c-0.7-0.1-1.4-0.3-1.9-0.6
	c-0.6-0.3-1.2-0.6-1.6-1.1c-0.5-0.4-0.9-0.9-1.2-1.5c-0.3-0.5-0.5-1.1-0.6-1.7c-0.1-0.7-0.2-1.4-0.2-2c0-0.2,0-1,0-1v-24
	c0,0,0-0.7,0-0.9c0-0.5,0.1-1.3,0.2-2c0.1-0.6,0.3-1.2,0.6-1.7c0.3-0.5,0.7-1,1.2-1.5c0.5-0.4,1-0.8,1.7-1.1
	c0.6-0.3,1.2-0.5,1.9-0.6c0.8-0.1,1.6-0.2,2.2-0.2h1.1h101.2h1.1c0.6,0,1.4,0,2.2,0.2c0.7,0.1,1.4,0.3,2,0.6
	c0.6,0.3,1.2,0.6,1.6,1.1c0.5,0.4,0.9,0.9,1.2,1.5c0.3,0.5,0.5,1.1,0.6,1.7c0.1,0.7,0.2,1.3,0.2,2c0,0.3,0,0.6,0,0.9
	c0,0.4,0,0.8,0,1.1v21.9c0,0.4,0,0.8,0,1.1c0,0.3,0,0.7,0,1c0,0.6-0.1,1.3-0.2,1.9s-0.3,1.2-0.6,1.7c-0.3,0.5-0.7,1-1.2,1.4
	s-1,0.8-1.6,1.1s-1.2,0.5-2,0.6s-1.5,0.2-2.2,0.2c-0.3,0-0.7,0-1.1,0h-1.3L327.9,33z"/>
<g id="XMLID_632_" transform="translate(66.000000, 117.000000)">
	
		<linearGradient id="XMLID_2_" gradientUnits="userSpaceOnUse" x1="604.9078" y1="167.9184" x2="604.9078" y2="166.9184" gradientTransform="matrix(24.1954 0 0 -24.1952 -14689.3604 3946.2217)">
		<stop  offset="0" style="stop-color:#F452FF"/>
		<stop  offset="1" style="stop-color:#832BC1"/>
	</linearGradient>
	<path id="XMLID_662_" class="st1" d="M-41.8-95.6c-0.2,0.6-0.8,1.4-1.5,2c-0.4,0.3-1,0.7-1.7,0.9c-0.8,0.2-1.7,0.3-2.9,0.3h-10.9
		c-1.2,0-2.1-0.1-2.9-0.3c-0.7-0.2-1.3-0.5-1.7-0.9c-0.8-0.6-1.3-1.4-1.5-2c-0.5-1.2-0.5-2.6-0.5-3.4l0,0v-10.9l0,0
		c0-0.9,0-2.2,0.5-3.4c0.2-0.6,0.8-1.4,1.5-2c0.4-0.3,1-0.7,1.7-0.9c0.8-0.2,1.7-0.3,2.9-0.3l0,0H-48l0,0c1.2,0,2.1,0.1,2.9,0.3
		c0.7,0.2,1.3,0.5,1.7,0.9c0.8,0.6,1.3,1.4,1.5,2c0.5,1.2,0.5,2.6,0.5,3.4V-99C-41.3-98.2-41.3-96.8-41.8-95.6z"/>
	<path id="XMLID_660_" class="st2" d="M-41.8-95.6c-0.2,0.6-0.8,1.4-1.5,2c-0.4,0.3-1,0.7-1.7,0.9c-0.8,0.2-1.7,0.3-2.9,0.3h-10.9
		c-1.2,0-2.1-0.1-2.9-0.3c-0.7-0.2-1.3-0.5-1.7-0.9c-0.8-0.6-1.3-1.4-1.5-2c-0.5-1.2-0.5-2.6-0.5-3.4l0,0v-10.9l0,0
		c0-0.9,0-2.2,0.5-3.4c0.2-0.6,0.8-1.4,1.5-2c0.4-0.3,1-0.7,1.7-0.9c0.8-0.2,1.7-0.3,2.9-0.3l0,0H-48l0,0c1.2,0,2.1,0.1,2.9,0.3
		c0.7,0.2,1.3,0.5,1.7,0.9c0.8,0.6,1.3,1.4,1.5,2c0.5,1.2,0.5,2.6,0.5,3.4V-99C-41.3-98.2-41.3-96.8-41.8-95.6z"/>
	<g id="XMLID_648_" transform="translate(3.846154, 2.884615)">
		<path id="Shape" class="st3" d="M-55.5-105.6c-0.4-0.4-1-0.6-1.8-0.6s-1.4,0.2-1.8,0.6c-0.2,0.2-0.3,0.4-0.3,0.7
			c-0.1,0.6,0,1.1,0,1.8c0.1,0.7,0.2,1.7,0.3,2.7c0.1,0.7,0.2,1.1,0.3,1.4c0.1,0.4,0.6,0.8,1.4,0.8c0.8,0,1.3-0.4,1.4-0.8
			c0.1-0.3,0.2-0.7,0.3-1.4c0.2-1,0.3-2,0.3-2.7c0.1-0.8,0.1-1.3,0-1.8C-55.2-105.2-55.3-105.4-55.5-105.6z M-59.2-109
			c0,1.1,0.9,2,2,2s2-0.9,2-2s-0.9-2-2-2S-59.2-110.1-59.2-109z M-57.3-116.8c-4.6,0-8.4,3.8-8.5,8.4c0,3.8,2.3,7,5.7,8.1
			c0.1,0,0.2,0,0.2-0.1c0-0.3-0.1-0.6-0.1-0.9c0-0.1-0.1-0.2-0.2-0.2c-2.6-1.2-4.5-3.8-4.5-6.9c0-4,3.3-7.3,7.4-7.3s7.5,3.3,7.5,7.4
			c0,3-1.8,5.7-4.5,6.8c-0.1,0-0.2,0.1-0.2,0.2c0,0.3-0.1,0.6-0.1,0.9c0,0.1,0.1,0.2,0.2,0.1c3.3-1.2,5.7-4.3,5.7-8
			C-48.7-113-52.6-116.8-57.3-116.8z M-57.4-112.9c2.6-0.1,4.8,2,4.8,4.6c0,1.3-0.6,2.5-1.5,3.4c-0.1,0.1-0.1,0.2-0.1,0.3
			c0,0.3,0,0.6,0,1c0,0.1,0.1,0.2,0.2,0.1c1.5-1,2.5-2.8,2.5-4.7c0-3.2-2.7-5.8-5.9-5.7c-3,0.1-5.4,2.6-5.5,5.6c0,2,1,3.7,2.5,4.8
			c0.1,0.1,0.2,0,0.2-0.1c0-0.3,0-0.7,0-1c0-0.1,0-0.2-0.1-0.3c-0.9-0.9-1.5-2.1-1.5-3.5C-61.8-110.8-59.8-112.8-57.4-112.9z"/>
	</g>
</g>
<path id="Listenon" class="st4" d="M222,7.9V2.1h0.9v5h2.8v0.8H222z M227,3c-0.3,0-0.5-0.2-0.5-0.5S226.7,2,227,2s0.5,0.2,0.5,0.5
	S227.3,3,227,3z M226.6,7.9V3.7h0.8v4.2C227.4,7.9,226.6,7.9,226.6,7.9z M228.3,7.3l0.4-0.6c0.3,0.3,0.9,0.6,1.5,0.6
	s0.9-0.2,0.9-0.6S230.6,6.1,230,6c-0.7-0.2-1.6-0.4-1.6-1.3c0-0.7,0.6-1.2,1.7-1.2c0.8,0,1.3,0.3,1.7,0.6l-0.4,0.5
	c-0.3-0.3-0.7-0.5-1.3-0.5s-0.9,0.2-0.9,0.5c0,0.4,0.5,0.5,1,0.6c0.8,0.2,1.7,0.4,1.7,1.3c0,0.7-0.6,1.3-1.8,1.3
	C229.4,8,228.7,7.8,228.3,7.3z M234.1,8c-0.7,0-1-0.4-1-1V4.4h-0.7V3.7h0.7V2.6h0.8v1.1h0.9v0.7h-0.9v2.4c0,0.3,0.1,0.5,0.4,0.5
	c0.2,0,0.4-0.1,0.4-0.2l0.2,0.6C234.8,7.9,234.5,8,234.1,8z M235.4,5.8c0-1.2,0.9-2.2,2.2-2.2s2.1,1,2.1,2.3v0.2h-3.5
	c0.1,0.7,0.6,1.3,1.5,1.3c0.5,0,1-0.2,1.3-0.5l0.4,0.5c-0.4,0.4-1,0.6-1.8,0.6C236.3,8,235.4,7.1,235.4,5.8z M237.6,4.2
	c-0.9,0-1.3,0.7-1.3,1.3h2.7C238.9,4.9,238.5,4.2,237.6,4.2z M243.7,7.9V5.2c0-0.7-0.4-0.9-0.9-0.9s-1,0.3-1.2,0.6v3h-0.8V3.7h0.8
	v0.6c0.3-0.3,0.9-0.7,1.6-0.7c0.9,0,1.4,0.5,1.4,1.4v2.9H243.7z M250,8c-1.4,0-2.2-1-2.2-2.2s0.9-2.2,2.2-2.2c1.4,0,2.2,1,2.2,2.2
	S251.4,8,250,8z M250,7.3c0.9,0,1.4-0.7,1.4-1.5s-0.5-1.5-1.4-1.5s-1.4,0.7-1.4,1.5S249.1,7.3,250,7.3z M256.2,7.9V5.2
	c0-0.7-0.4-0.9-0.9-0.9s-1,0.3-1.2,0.6v3h-0.8V3.7h0.8v0.6c0.3-0.3,0.9-0.7,1.6-0.7c0.9,0,1.4,0.5,1.4,1.4v2.9H256.2z"/>
<path id="Listenon-Copy" class="st4" d="M31,7.9V2.1h0.9v5h2.8v0.8H31z M36,3c-0.3,0-0.5-0.2-0.5-0.5S35.7,2,36,2s0.5,0.2,0.5,0.5
	S36.3,3,36,3z M35.6,7.9V3.7h0.8v4.2C36.4,7.9,35.6,7.9,35.6,7.9z M37.3,7.3l0.4-0.6C38,7,38.6,7.3,39.2,7.3s0.9-0.2,0.9-0.6
	S39.6,6.1,39,6c-0.7-0.2-1.6-0.4-1.6-1.3c0-0.7,0.6-1.2,1.7-1.2c0.8,0,1.3,0.3,1.7,0.6l-0.4,0.5c-0.3-0.3-0.7-0.5-1.3-0.5
	s-0.9,0.2-0.9,0.5c0,0.4,0.5,0.5,1,0.6c0.8,0.2,1.7,0.4,1.7,1.3c0,0.7-0.6,1.3-1.8,1.3C38.4,8,37.7,7.8,37.3,7.3z M43.1,8
	c-0.7,0-1-0.4-1-1V4.4h-0.7V3.7h0.7V2.6h0.8v1.1h0.9v0.7h-0.9v2.4c0,0.3,0.1,0.5,0.4,0.5c0.2,0,0.4-0.1,0.4-0.2L44,7.7
	C43.8,7.9,43.5,8,43.1,8z M44.4,5.8c0-1.2,0.9-2.2,2.2-2.2s2.1,1,2.1,2.3v0.2h-3.5c0.1,0.7,0.6,1.3,1.5,1.3c0.5,0,1-0.2,1.3-0.5
	l0.4,0.5C48,7.8,47.4,8,46.6,8C45.3,8,44.4,7.1,44.4,5.8z M46.6,4.2c-0.9,0-1.3,0.7-1.3,1.3H48C47.9,4.9,47.5,4.2,46.6,4.2z
	 M52.7,7.9V5.2c0-0.7-0.4-0.9-0.9-0.9s-1,0.3-1.2,0.6v3h-0.8V3.7h0.8v0.6c0.3-0.3,0.9-0.7,1.6-0.7c0.9,0,1.4,0.5,1.4,1.4v2.9H52.7z
	 M59,8c-1.4,0-2.2-1-2.2-2.2s0.9-2.2,2.2-2.2c1.4,0,2.2,1,2.2,2.2S60.4,8,59,8z M59,7.3c0.9,0,1.4-0.7,1.4-1.5S59.9,4.3,59,4.3
	S57.6,5,57.6,5.8S58.1,7.3,59,7.3z M65.2,7.9V5.2c0-0.7-0.4-0.9-0.9-0.9s-1,0.3-1.2,0.6v3h-0.8V3.7H63v0.6c0.3-0.3,0.9-0.7,1.6-0.7
	C65.5,3.6,66,4.1,66,5v2.9H65.2z"/>
<path id="Listenon-Copy-3" class="st4" d="M508,7.9V2.1h0.9v5h2.8v0.8H508z M513,3c-0.3,0-0.5-0.2-0.5-0.5S512.7,2,513,2
	s0.5,0.2,0.5,0.5S513.3,3,513,3z M512.6,7.9V3.7h0.8v4.2C513.4,7.9,512.6,7.9,512.6,7.9z M514.3,7.3l0.4-0.6
	c0.3,0.3,0.9,0.6,1.5,0.6s0.9-0.2,0.9-0.6S516.6,6.1,516,6c-0.7-0.2-1.6-0.4-1.6-1.3c0-0.7,0.6-1.2,1.7-1.2c0.8,0,1.3,0.3,1.7,0.6
	l-0.4,0.5c-0.3-0.3-0.7-0.5-1.3-0.5s-0.9,0.2-0.9,0.5c0,0.4,0.5,0.5,1,0.6c0.8,0.2,1.7,0.4,1.7,1.3c0,0.7-0.6,1.3-1.8,1.3
	C515.4,8,514.7,7.8,514.3,7.3z M520.1,8c-0.7,0-1-0.4-1-1V4.4h-0.7V3.7h0.7V2.6h0.8v1.1h0.9v0.7h-0.9v2.4c0,0.3,0.1,0.5,0.4,0.5
	c0.2,0,0.4-0.1,0.4-0.2l0.2,0.6C520.8,7.9,520.5,8,520.1,8z M521.4,5.8c0-1.2,0.9-2.2,2.2-2.2s2.1,1,2.1,2.3v0.2h-3.5
	c0.1,0.7,0.6,1.3,1.5,1.3c0.5,0,1-0.2,1.3-0.5l0.4,0.5c-0.4,0.4-1,0.6-1.8,0.6C522.3,8,521.4,7.1,521.4,5.8z M523.6,4.2
	c-0.9,0-1.3,0.7-1.3,1.3h2.7C524.9,4.9,524.5,4.2,523.6,4.2z M529.7,7.9V5.2c0-0.7-0.4-0.9-0.9-0.9s-1,0.3-1.2,0.6v3h-0.8V3.7h0.8
	v0.6c0.3-0.3,0.9-0.7,1.6-0.7c0.9,0,1.4,0.5,1.4,1.4v2.9H529.7z M536,8c-1.4,0-2.2-1-2.2-2.2s0.9-2.2,2.2-2.2c1.4,0,2.2,1,2.2,2.2
	S537.4,8,536,8z M536,7.3c0.9,0,1.4-0.7,1.4-1.5s-0.5-1.5-1.4-1.5s-1.4,0.7-1.4,1.5S535.1,7.3,536,7.3z M542.2,7.9V5.2
	c0-0.7-0.4-0.9-0.9-0.9s-1,0.3-1.2,0.6v3h-0.8V3.7h0.8v0.6c0.3-0.3,0.9-0.7,1.6-0.7c0.9,0,1.4,0.5,1.4,1.4v2.9H542.2z"/>
<path id="Listenon-Copy-4" class="st4" d="M710,7.9V2.1h0.9v5h2.8v0.8H710z M715,3c-0.3,0-0.5-0.2-0.5-0.5S714.7,2,715,2
	s0.5,0.2,0.5,0.5S715.3,3,715,3z M714.6,7.9V3.7h0.8v4.2C715.4,7.9,714.6,7.9,714.6,7.9z M716.3,7.3l0.4-0.6
	c0.3,0.3,0.9,0.6,1.5,0.6s0.9-0.2,0.9-0.6S718.6,6.1,718,6c-0.7-0.2-1.6-0.4-1.6-1.3c0-0.7,0.6-1.2,1.7-1.2c0.8,0,1.3,0.3,1.7,0.6
	l-0.4,0.5c-0.3-0.3-0.7-0.5-1.3-0.5s-0.9,0.2-0.9,0.5c0,0.4,0.5,0.5,1,0.6c0.8,0.2,1.7,0.4,1.7,1.3c0,0.7-0.6,1.3-1.8,1.3
	C717.4,8,716.7,7.8,716.3,7.3z M722.1,8c-0.7,0-1-0.4-1-1V4.4h-0.7V3.7h0.7V2.6h0.8v1.1h0.9v0.7h-0.9v2.4c0,0.3,0.1,0.5,0.4,0.5
	c0.2,0,0.4-0.1,0.4-0.2l0.2,0.6C722.8,7.9,722.5,8,722.1,8z M723.4,5.8c0-1.2,0.9-2.2,2.2-2.2s2.1,1,2.1,2.3v0.2h-3.5
	c0.1,0.7,0.6,1.3,1.5,1.3c0.5,0,1-0.2,1.3-0.5l0.4,0.5c-0.4,0.4-1,0.6-1.8,0.6C724.3,8,723.4,7.1,723.4,5.8z M725.6,4.2
	c-0.9,0-1.3,0.7-1.3,1.3h2.7C726.9,4.9,726.5,4.2,725.6,4.2z M731.7,7.9V5.2c0-0.7-0.4-0.9-0.9-0.9s-1,0.3-1.2,0.6v3h-0.8V3.7h0.8
	v0.6c0.3-0.3,0.9-0.7,1.6-0.7c0.9,0,1.4,0.5,1.4,1.4v2.9H731.7z M738,8c-1.4,0-2.2-1-2.2-2.2s0.9-2.2,2.2-2.2c1.4,0,2.2,1,2.2,2.2
	S739.4,8,738,8z M738,7.3c0.9,0,1.4-0.7,1.4-1.5s-0.5-1.5-1.4-1.5s-1.4,0.7-1.4,1.5S737.1,7.3,738,7.3z M744.2,7.9V5.2
	c0-0.7-0.4-0.9-0.9-0.9s-1,0.3-1.2,0.6v3h-0.8V3.7h0.8v0.6c0.3-0.3,0.9-0.7,1.6-0.7c0.9,0,1.4,0.5,1.4,1.4v2.9H744.2z"/>
<path id="Listenon-Copy-5" class="st4" d="M846,7.9V2.1h0.9v5h2.8v0.8H846z M851,3c-0.3,0-0.5-0.2-0.5-0.5S850.7,2,851,2
	s0.5,0.2,0.5,0.5S851.3,3,851,3z M850.6,7.9V3.7h0.8v4.2C851.4,7.9,850.6,7.9,850.6,7.9z M852.3,7.3l0.4-0.6
	c0.3,0.3,0.9,0.6,1.5,0.6s0.9-0.2,0.9-0.6S854.6,6.1,854,6c-0.7-0.2-1.6-0.4-1.6-1.3c0-0.7,0.6-1.2,1.7-1.2c0.8,0,1.3,0.3,1.7,0.6
	l-0.4,0.5c-0.3-0.3-0.7-0.5-1.3-0.5s-0.9,0.2-0.9,0.5c0,0.4,0.5,0.5,1,0.6c0.8,0.2,1.7,0.4,1.7,1.3c0,0.7-0.6,1.3-1.8,1.3
	C853.4,8,852.7,7.8,852.3,7.3z M858.1,8c-0.7,0-1-0.4-1-1V4.4h-0.7V3.7h0.7V2.6h0.8v1.1h0.9v0.7h-0.9v2.4c0,0.3,0.1,0.5,0.4,0.5
	c0.2,0,0.4-0.1,0.4-0.2l0.2,0.6C858.8,7.9,858.5,8,858.1,8z M859.4,5.8c0-1.2,0.9-2.2,2.2-2.2s2.1,1,2.1,2.3v0.2h-3.5
	c0.1,0.7,0.6,1.3,1.5,1.3c0.5,0,1-0.2,1.3-0.5l0.4,0.5c-0.4,0.4-1,0.6-1.8,0.6C860.3,8,859.4,7.1,859.4,5.8z M861.6,4.2
	c-0.9,0-1.3,0.7-1.3,1.3h2.7C862.9,4.9,862.5,4.2,861.6,4.2z M867.7,7.9V5.2c0-0.7-0.4-0.9-0.9-0.9s-1,0.3-1.2,0.6v3h-0.8V3.7h0.8
	v0.6c0.3-0.3,0.9-0.7,1.6-0.7c0.9,0,1.4,0.5,1.4,1.4v2.9H867.7z M874,8c-1.4,0-2.2-1-2.2-2.2s0.9-2.2,2.2-2.2c1.4,0,2.2,1,2.2,2.2
	S875.4,8,874,8z M874,7.3c0.9,0,1.4-0.7,1.4-1.5s-0.5-1.5-1.4-1.5s-1.4,0.7-1.4,1.5S873.1,7.3,874,7.3z M880.2,7.9V5.2
	c0-0.7-0.4-0.9-0.9-0.9s-1,0.3-1.2,0.6v3h-0.8V3.7h0.8v0.6c0.3-0.3,0.9-0.7,1.6-0.7c0.9,0,1.4,0.5,1.4,1.4v2.9H880.2z"/>
<path id="Listenon-Copy-6" class="st4" d="M990,7.9V2.1h0.9v5h2.8v0.8H990z M995,3c-0.3,0-0.5-0.2-0.5-0.5S994.7,2,995,2
	s0.5,0.2,0.5,0.5S995.3,3,995,3z M994.6,7.9V3.7h0.8v4.2C995.4,7.9,994.6,7.9,994.6,7.9z M996.3,7.3l0.4-0.6
	c0.3,0.3,0.9,0.6,1.5,0.6s0.9-0.2,0.9-0.6S998.6,6.1,998,6c-0.7-0.2-1.6-0.4-1.6-1.3c0-0.7,0.6-1.2,1.7-1.2c0.8,0,1.3,0.3,1.7,0.6
	l-0.4,0.5c-0.3-0.3-0.7-0.5-1.3-0.5s-0.9,0.2-0.9,0.5c0,0.4,0.5,0.5,1,0.6c0.8,0.2,1.7,0.4,1.7,1.3c0,0.7-0.6,1.3-1.8,1.3
	C997.4,8,996.7,7.8,996.3,7.3z M1002.1,8c-0.7,0-1-0.4-1-1V4.4h-0.7V3.7h0.7V2.6h0.8v1.1h0.9v0.7h-0.9v2.4c0,0.3,0.1,0.5,0.4,0.5
	c0.2,0,0.4-0.1,0.4-0.2l0.2,0.6C1002.8,7.9,1002.5,8,1002.1,8z M1003.4,5.8c0-1.2,0.9-2.2,2.2-2.2s2.1,1,2.1,2.3v0.2h-3.5
	c0.1,0.7,0.6,1.3,1.5,1.3c0.5,0,1-0.2,1.3-0.5l0.4,0.5c-0.4,0.4-1.1,0.6-1.8,0.6C1004.3,8,1003.4,7.1,1003.4,5.8z M1005.6,4.2
	c-0.9,0-1.3,0.7-1.3,1.3h2.7C1006.9,4.9,1006.5,4.2,1005.6,4.2z M1011.7,7.9V5.2c0-0.7-0.4-0.9-0.9-0.9s-1,0.3-1.2,0.6v3h-0.8V3.7
	h0.8v0.6c0.3-0.3,0.9-0.7,1.6-0.7c0.9,0,1.4,0.5,1.4,1.4v2.9H1011.7z M1018,8c-1.4,0-2.2-1-2.2-2.2s0.9-2.2,2.2-2.2
	c1.4,0,2.2,1,2.2,2.2S1019.4,8,1018,8z M1018,7.3c0.9,0,1.4-0.7,1.4-1.5s-0.5-1.5-1.4-1.5s-1.4,0.7-1.4,1.5S1017.1,7.3,1018,7.3z
	 M1024.2,7.9V5.2c0-0.7-0.4-0.9-0.9-0.9s-1,0.3-1.2,0.6v3h-0.8V3.7h0.8v0.6c0.3-0.3,0.9-0.7,1.6-0.7c0.9,0,1.4,0.5,1.4,1.4v2.9
	H1024.2z"/>
<path id="Getthe" class="st4" d="M359,5c0-1.8,1.4-3,3.1-3c1.1,0,1.8,0.5,2.3,1.1l-0.7,0.4c-0.3-0.4-0.9-0.8-1.6-0.8
	c-1.2,0-2.2,0.9-2.2,2.2s0.9,2.2,2.2,2.2c0.7,0,1.2-0.3,1.5-0.6v-1h-1.9V4.8h2.8V7c-0.6,0.6-1.4,1-2.4,1C360.4,8,359,6.8,359,5z
	 M365.3,5.8c0-1.2,0.9-2.2,2.2-2.2c1.3,0,2.1,1,2.1,2.3V6h-3.4c0.1,0.7,0.6,1.3,1.5,1.3c0.5,0,1-0.2,1.3-0.5l0.4,0.5
	c-0.4,0.4-1,0.6-1.7,0.6C366.2,8,365.3,7.1,365.3,5.8z M367.4,4.2c-0.9,0-1.3,0.7-1.3,1.3h2.6C368.7,4.9,368.3,4.2,367.4,4.2z
	 M371.7,8c-0.7,0-1-0.4-1-1V4.4H370V3.7h0.7V2.5h0.8v1.1h0.9v0.7h-0.9v2.4c0,0.3,0.1,0.5,0.4,0.5c0.2,0,0.4-0.1,0.4-0.2l0.2,0.6
	C372.3,7.9,372.1,8,371.7,8z M376.6,8c-0.7,0-1-0.4-1-1V4.4h-0.7V3.7h0.7V2.5h0.8v1.1h0.9v0.7h-0.9v2.4c0,0.3,0.1,0.5,0.4,0.5
	c0.2,0,0.4-0.1,0.4-0.2l0.2,0.6C377.3,7.9,377,8,376.6,8z M381,7.9V5.2c0-0.7-0.4-0.9-0.9-0.9s-1,0.3-1.2,0.6v3h-0.8V2.1h0.8v2.2
	c0.3-0.3,0.9-0.7,1.5-0.7c0.9,0,1.4,0.5,1.4,1.3v3H381z M382.8,5.8c0-1.2,0.9-2.2,2.2-2.2c1.3,0,2.1,1,2.1,2.3V6h-3.4
	c0.1,0.7,0.6,1.3,1.5,1.3c0.5,0,1-0.2,1.3-0.5l0.4,0.5c-0.4,0.4-1,0.6-1.7,0.6C383.7,8,382.8,7.1,382.8,5.8z M384.9,4.2
	c-0.9,0-1.3,0.7-1.3,1.3h2.6C386.2,4.9,385.8,4.2,384.9,4.2z"/>
<path id="ApplePodcasts" class="st5" d="M38.7,24.1l-1.1-3.3H33l-1.1,3.3H30L34.3,12h2l4.3,12.1H38.7z M35.3,14l-1.8,5.3h3.6
	L35.3,14L35.3,14z M46.3,15.1c2.2,0,3.7,1.8,3.7,4.5s-1.5,4.6-3.7,4.6c-1.3,0-2.3-0.6-2.8-1.6l0,0V27h-1.8V15.3h1.7v1.5l0,0
	C44,15.8,45,15.1,46.3,15.1z M45.8,22.7c1.4,0,2.3-1.2,2.3-3s-0.9-3-2.3-3c-1.4,0-2.3,1.2-2.3,3S44.4,22.7,45.8,22.7z M55.8,15.1
	c2.2,0,3.7,1.8,3.7,4.5s-1.5,4.6-3.7,4.6c-1.3,0-2.3-0.6-2.8-1.6l0,0V27h-1.8V15.3H53v1.5l0,0C53.5,15.8,54.5,15.1,55.8,15.1z
	 M55.3,22.7c1.4,0,2.3-1.2,2.3-3s-0.9-3-2.3-3c-1.4,0-2.3,1.2-2.3,3S54,22.7,55.3,22.7z M60.9,24.1V12h1.8v12.1H60.9z M68.1,16.6
	c-1.3,0-2.1,1-2.2,2.3h4.4C70.2,17.5,69.3,16.6,68.1,16.6z M70.2,21.5h1.7c-0.2,1.6-1.8,2.8-3.8,2.8c-2.6,0-4.1-1.8-4.1-4.5
	c0-2.8,1.6-4.6,4.1-4.6c2.4,0,3.9,1.7,3.9,4.4v0.6h-6.2v0.1c0,1.5,0.9,2.5,2.4,2.5C69.2,22.8,70,22.3,70.2,21.5z M76.9,12h4.5
	c2.3,0,4,1.6,4,4s-1.7,4-4,4h-2.6v4.1h-1.9V12z M78.8,13.6v4.8h2.1c1.6,0,2.5-0.9,2.5-2.4s-0.9-2.4-2.5-2.4
	C80.9,13.6,78.8,13.6,78.8,13.6z M90.1,24.3c-2.5,0-4.2-1.7-4.2-4.6c0-2.8,1.7-4.6,4.2-4.6s4.2,1.7,4.2,4.6
	C94.2,22.5,92.6,24.3,90.1,24.3z M90.1,22.8c1.4,0,2.3-1.1,2.3-3.1s-0.9-3.1-2.3-3.1s-2.3,1.1-2.3,3.1
	C87.8,21.6,88.7,22.8,90.1,22.8z M98.8,24.2c-2.2,0-3.7-1.8-3.7-4.6s1.5-4.5,3.7-4.5c1.3,0,2.3,0.6,2.7,1.6l0,0V12h1.8v12.1h-1.7
	v-1.5l0,0C101.1,23.6,100.1,24.2,98.8,24.2z M99.3,16.7c-1.4,0-2.3,1.2-2.3,3c0,1.9,0.9,3,2.3,3s2.3-1.2,2.3-3
	C101.6,17.9,100.7,16.7,99.3,16.7z M112.7,18.3H111c-0.2-0.9-0.9-1.7-2.1-1.7c-1.4,0-2.3,1.2-2.3,3.1s0.9,3.1,2.3,3.1
	c1.1,0,1.8-0.6,2-1.6h1.7c-0.2,1.9-1.7,3.1-3.8,3.1c-2.5,0-4.1-1.7-4.1-4.6c0-2.8,1.6-4.6,4.1-4.6C111.1,15.1,112.5,16.6,112.7,18.3
	z M116.9,22.8c1.3,0,2.2-0.9,2.2-2v-0.7l-2.2,0.1c-1.1,0.1-1.7,0.6-1.7,1.3C115.3,22.3,116,22.8,116.9,22.8z M116.4,24.2
	c-1.7,0-2.9-1.1-2.9-2.7c0-1.5,1.2-2.5,3.3-2.6l2.4-0.1v-0.7c0-1-0.7-1.6-1.8-1.6c-1,0-1.7,0.5-1.8,1.3h-1.7
	c0.1-1.6,1.4-2.8,3.6-2.8c2.1,0,3.5,1.1,3.5,2.9V24h-1.7v-1.4l0,0C118.7,23.6,117.6,24.2,116.4,24.2z M122.5,17.8
	c0-1.6,1.4-2.7,3.4-2.7s3.4,1.1,3.4,2.8h-1.7c-0.1-0.9-0.7-1.4-1.7-1.4s-1.6,0.5-1.6,1.2c0,0.6,0.4,0.9,1.3,1.1l1.4,0.3
	c1.8,0.4,2.5,1.1,2.5,2.4c0,1.6-1.5,2.7-3.6,2.7c-2.2,0-3.5-1.1-3.7-2.8h1.8c0.2,0.9,0.8,1.4,1.9,1.4s1.7-0.5,1.7-1.2
	c0-0.6-0.3-0.9-1.3-1.1l-1.4-0.3C123.3,19.9,122.5,19.1,122.5,17.8z M131.3,13.2h1.8v2.1h1.7v1.4h-1.7v4.9c0,0.8,0.3,1.1,1.1,1.1
	c0.2,0,0.5,0,0.6,0v1.4c-0.2,0.1-0.6,0.1-1,0.1c-1.8,0-2.5-0.7-2.5-2.4v-5.1H130v-1.4h1.3V13.2z M136,17.8c0-1.6,1.4-2.7,3.4-2.7
	s3.4,1.1,3.4,2.8h-1.7c-0.1-0.9-0.7-1.4-1.7-1.4s-1.6,0.5-1.6,1.2c0,0.6,0.4,0.9,1.3,1.1l1.4,0.3c1.8,0.4,2.5,1.1,2.5,2.4
	c0,1.6-1.5,2.7-3.6,2.7c-2.2,0-3.5-1.1-3.7-2.8h1.8c0.2,0.9,0.8,1.4,1.9,1.4c1.1,0,1.7-0.5,1.7-1.2c0-0.6-0.3-0.9-1.3-1.1l-1.4-0.3
	C136.8,19.9,136,19.1,136,17.8z"/>
<path id="RSSFeed" class="st5" d="M360.9,13.7v4.2h2.6c1.4,0,2.2-0.8,2.2-2.1s-0.9-2.1-2.3-2.1C363.4,13.7,360.9,13.7,360.9,13.7z
	 M360.9,19.3v4.5H359V12.2h4.6c2.5,0,4,1.4,4,3.5c0,1.6-0.9,2.8-2.3,3.3l2.7,4.7h-2.1l-2.4-4.5L360.9,19.3L360.9,19.3z M368.8,20.6
	h1.8c0.2,1.2,1.3,1.8,2.9,1.8c1.5,0,2.6-0.8,2.6-1.8c0-0.9-0.6-1.5-2.2-1.8l-1.3-0.3c-2.4-0.5-3.5-1.6-3.5-3.2c0-2,1.8-3.4,4.3-3.4
	s4.3,1.4,4.3,3.4h-1.8c-0.1-1.2-1.1-1.9-2.5-1.9s-2.4,0.7-2.4,1.7c0,0.8,0.6,1.4,2.2,1.7l1.3,0.3c2.5,0.5,3.5,1.5,3.5,3.2
	c0,2.2-1.8,3.6-4.5,3.6C370.7,24,368.9,22.7,368.8,20.6z M379,20.6h1.8c0.2,1.2,1.3,1.8,2.9,1.8c1.5,0,2.6-0.8,2.6-1.8
	c0-0.9-0.6-1.5-2.2-1.8l-1.3-0.3c-2.4-0.5-3.5-1.6-3.5-3.2c0-2,1.8-3.4,4.3-3.4s4.3,1.4,4.3,3.4h-1.8c-0.1-1.2-1.1-1.9-2.5-1.9
	s-2.4,0.7-2.4,1.7c0,0.8,0.6,1.4,2.2,1.7l1.3,0.3c2.5,0.5,3.5,1.5,3.5,3.2c0,2.2-1.8,3.6-4.5,3.6C380.9,24,379.1,22.7,379,20.6z
	 M394.9,23.8H393V12.2h7.4v1.6h-5.6v3.7h5.1V19h-5.1v4.8H394.9z M405.1,16.6c-1.2,0-2.1,0.9-2.2,2.2h4.3
	C407.2,17.5,406.4,16.6,405.1,16.6z M407.3,21.3h1.7c-0.2,1.5-1.8,2.6-3.7,2.6c-2.6,0-4.1-1.7-4.1-4.4s1.6-4.4,4-4.4
	s3.9,1.7,3.9,4.2V20H403v0.1c0,1.5,0.9,2.4,2.3,2.4C406.3,22.6,407,22.1,407.3,21.3z M414,16.6c-1.2,0-2.1,0.9-2.2,2.2h4.3
	C416.1,17.5,415.2,16.6,414,16.6z M416.1,21.3h1.7c-0.2,1.5-1.8,2.6-3.7,2.6c-2.6,0-4.1-1.7-4.1-4.4s1.6-4.4,4-4.4s3.9,1.7,3.9,4.2
	V20h-6.1v0.1c0,1.5,0.9,2.4,2.3,2.4C415.1,22.6,415.9,22.1,416.1,21.3z M422.5,24c-2.2,0-3.7-1.7-3.7-4.4s1.5-4.4,3.6-4.4
	c1.2,0,2.2,0.6,2.7,1.5l0,0v-4.6h1.8v11.6h-1.7v-1.4l0,0C424.7,23.3,423.7,24,422.5,24z M422.9,16.7c-1.4,0-2.3,1.1-2.3,2.9
	s0.9,2.9,2.3,2.9s2.3-1.1,2.3-2.9C425.2,17.8,424.3,16.7,422.9,16.7z"/>
<path id="Fill-1" class="st6" d="M212.3,11.8c-3.8-2.6-10.2-2.8-13.9-1.6c-0.6,0.2-1.2-0.2-1.4-0.8c-0.2-0.7,0.2-1.4,0.7-1.6
	c4.2-1.4,11.2-1.2,15.7,1.8c0.5,0.4,0.7,1.1,0.4,1.7C213.5,12,212.8,12.2,212.3,11.8z M211.9,14.6c-0.3,0.4-0.8,0.6-1.2,0.3
	c-3.1-2-7.8-2.6-11.5-1.4c-0.5,0.1-1-0.1-1.1-0.6s0.1-1,0.6-1.2c4.2-1.3,9.4-0.7,12.9,1.6C212,13.5,212.1,14.1,211.9,14.6z
	 M209.9,17.7c-0.2,0.3-0.6,0.4-1,0.2c-2.7-1.6-6.1-1.9-10-1.1c-0.4,0.1-0.8-0.1-0.9-0.5c-0.1-0.4,0.2-0.7,0.5-0.8
	c4.4-1,8.1-0.5,11.1,1.2C210,16.9,210.1,17.3,209.9,17.7z M205,1c-6.6,0-12,5.4-12,12s5.4,12,12,12s12-5.4,12-12S211.6,1,205,1
	L205,1z"/>
<path class="st7" d="M335.5,21.8c0,1.8-1.4,3.2-3.2,3.2c-1.8,0-3.2-1.4-3.2-3.2c0-1.8,1.4-3.2,3.2-3.2C334,18.5,335.5,20,335.5,21.8
	z M344.7,25h-4.6c0-3-1.2-5.8-3.3-7.9c-2.1-2.1-4.9-3.3-7.9-3.3V9.3C337.7,9.3,344.7,16.3,344.7,25z M353,25h-4.6
	c0-10.7-8.7-19.4-19.4-19.4V1C342.2,1,353,11.8,353,25z"/>
<g id="Podcast_icon_final" transform="translate(543.000000, 117.000000)">
	<g id="_logo_Podcasts_192px">
		<polygon class="st8" points="-55.1,-109 -55.1,-105.3 -55.1,-103.7 -55.1,-100 -51.9,-100 -51.9,-103.7 -51.9,-105.3 -51.9,-109 
					"/>
		<circle id="Oval" class="st9" cx="-64.4" cy="-105.4" r="1.6"/>
		<circle class="st9" cx="-64.4" cy="-103.6" r="1.6"/>
		<rect id="Rectangle-path" x="-66" y="-105.4" class="st9" width="3.1" height="1.7"/>
		<circle class="st10" cx="-42.6" cy="-103.6" r="1.6"/>
		<circle class="st10" cx="-42.6" cy="-105.4" r="1.6"/>
		<rect x="-44.1" y="-105.4" class="st10" width="3.1" height="1.7"/>
		<circle class="st11" cx="-59" cy="-100.2" r="1.6"/>
		<circle class="st11" cx="-59" cy="-98.5" r="1.6"/>
		<rect x="-60.6" y="-100.2" class="st11" width="3.1" height="1.7"/>
		<circle class="st11" cx="-59" cy="-110.5" r="1.6"/>
		<circle class="st11" cx="-59" cy="-104.9" r="1.6"/>
		<rect x="-60.6" y="-110.5" class="st11" width="3.1" height="5.6"/>
		<circle class="st12" cx="-48" cy="-108.8" r="1.6"/>
		<circle class="st12" cx="-48" cy="-110.5" r="1.6"/>
		<rect x="-49.5" y="-110.5" class="st12" width="3.1" height="1.7"/>
		<circle class="st8" cx="-53.5" cy="-113.7" r="1.6"/>
		<circle class="st8" cx="-53.5" cy="-115.4" r="1.6"/>
		<rect x="-55.1" y="-115.4" class="st8" width="3.1" height="1.7"/>
		<circle class="st8" cx="-53.5" cy="-93.6" r="1.6"/>
		<circle class="st8" cx="-53.5" cy="-95.3" r="1.6"/>
		<rect x="-55.1" y="-95.3" class="st8" width="3.1" height="1.7"/>
		<circle class="st12" cx="-48" cy="-98.5" r="1.6"/>
		<circle class="st12" cx="-48" cy="-104.1" r="1.6"/>
		<rect x="-49.5" y="-104.1" class="st12" width="3.1" height="5.5"/>
		<circle class="st8" cx="-53.5" cy="-109" r="1.6"/>
		<circle class="st8" cx="-53.5" cy="-100" r="1.6"/>
	</g>
</g>
<g id="overcast-seeklogo.com" transform="translate(881.000000, 117.000000)">
	<g id="Clip-2">
	</g>
	<path class="st13" d="M-59.8-98.2c-1.6-1.6-2.6-3.9-2.6-6.3s1-4.7,2.6-6.3l0.8,0.8c-1.4,1.4-2.3,3.4-2.3,5.5s0.9,4.1,2.3,5.5
		L-59.8-98.2z M-57.4-100.6c-1-1-1.6-2.4-1.6-3.9s0.6-2.9,1.6-3.9l0.8,0.8c-0.8,0.8-1.3,1.9-1.3,3.1s0.5,2.3,1.3,3.1L-57.4-100.6z
		 M-50.4-101.4c0.8-0.8,1.3-1.9,1.3-3.1s-0.5-2.3-1.3-3.1l0.8-0.8c1,1,1.6,2.4,1.6,3.9s-0.6,2.9-1.6,3.9L-50.4-101.4z M-47.2-98.2
		L-48-99c1.4-1.4,2.3-3.4,2.3-5.5s-0.9-4.1-2.3-5.5l0.8-0.8c1.6,1.6,2.6,3.9,2.6,6.3S-45.6-99.8-47.2-98.2z M-53.5-115.9
		c-6.3,0-11.4,5.1-11.4,11.4c0,5,3.3,9.3,7.8,10.8l2.9-8.8c-0.8-0.3-1.5-1.1-1.5-2c0-1.2,1-2.1,2.1-2.1s2.1,1,2.1,2.1
		c0,0.9-0.6,1.7-1.5,2l2.9,8.8c4.5-1.5,7.8-5.8,7.8-10.8C-42.1-110.8-47.2-115.9-53.5-115.9z M-52.1-93.2c-0.5-0.4-1-0.8-1.5-1.3
		c-0.5,0.5-0.9,0.9-1.4,1.3c0.5,0.1,1,0.1,1.5,0.1S-52.6-93.2-52.1-93.2z M-52.9-95.3c0.6,0.7,1.3,1.3,2,1.9h0.1l-1.2-3
		C-52.2-96.1-52.5-95.7-52.9-95.3z M-53.5-96.1c0.4-0.5,0.8-1,1.1-1.6l-1.1-2.7l-1.1,2.7C-54.3-97.1-53.9-96.6-53.5-96.1z
		 M-56.2-93.5c0.7-0.5,1.3-1.1,1.9-1.8c-0.3-0.4-0.6-0.7-0.9-1.1L-56.2-93.5L-56.2-93.5z M-53.5-92c-6.9,0-12.5-5.6-12.5-12.5
		s5.6-12.5,12.5-12.5s12.5,5.6,12.5,12.5S-46.6-92-53.5-92L-53.5-92z"/>
	<path id="Fill-3" class="st14" d="M-59.8-98.2L-59.8-98.2c-1.6-1.6-2.6-3.9-2.6-6.3s1-4.7,2.6-6.3l0,0l0,0l0.8,0.8l0,0l0,0
		c-1.4,1.4-2.3,3.4-2.3,5.5s0.9,4.1,2.3,5.5l0,0l0,0L-59.8-98.2L-59.8-98.2L-59.8-98.2L-59.8-98.2L-59.8-98.2L-59-99l0,0
		c-1.4-1.4-2.3-3.4-2.3-5.5c0-2.2,0.9-4.1,2.3-5.5l0,0l-0.8-0.8l0,0c-1.6,1.6-2.6,3.9-2.6,6.3S-61.5-99.8-59.8-98.2L-59.8-98.2
		L-59.8-98.2L-59.8-98.2z M-57.4-100.6L-57.4-100.6c-1-1-1.6-2.4-1.6-3.9s0.6-2.9,1.6-3.9l0,0l0,0l0.8,0.8l0,0l0,0
		c-0.8,0.8-1.3,1.9-1.3,3.1s0.5,2.3,1.3,3.1l0,0l0,0L-57.4-100.6L-57.4-100.6L-57.4-100.6L-57.4-100.6L-57.4-100.6l0.8-0.8l0,0
		c-0.8-0.8-1.3-1.9-1.3-3.1s0.5-2.3,1.3-3.1l0,0l-0.8-0.8l0,0c-1,1-1.6,2.4-1.6,3.9S-58.4-101.6-57.4-100.6L-57.4-100.6L-57.4-100.6
		L-57.4-100.6z M-50.4-101.4L-50.4-101.4c0.8-0.8,1.3-1.9,1.3-3.1s-0.5-2.3-1.3-3.1l0,0l0,0l0.8-0.8l0,0l0,0c1,1,1.6,2.4,1.6,3.9
		s-0.6,2.9-1.6,3.9l0,0l0,0L-50.4-101.4L-50.4-101.4L-50.4-101.4L-50.4-101.4L-50.4-101.4l0.8,0.8l0,0c1-1,1.6-2.4,1.6-3.9
		s-0.6-2.9-1.6-3.9l0,0l-0.8,0.8l0,0c0.8,0.8,1.3,1.9,1.3,3.1C-49.2-103.3-49.6-102.2-50.4-101.4L-50.4-101.4L-50.4-101.4
		L-50.4-101.4z M-47.2-98.2L-47.2-98.2L-48-99l0,0l0,0c1.4-1.4,2.3-3.4,2.3-5.5s-0.9-4.1-2.3-5.5l0,0l0,0l0.8-0.8l0,0l0,0
		c1.6,1.6,2.6,3.8,2.6,6.3S-45.6-99.8-47.2-98.2L-47.2-98.2L-47.2-98.2L-47.2-98.2L-47.2-98.2c1.6-1.6,2.6-3.9,2.6-6.3
		s-1-4.7-2.6-6.3l0,0L-48-110l0,0c1.4,1.4,2.3,3.4,2.3,5.5c0,2.2-0.9,4.1-2.3,5.5l0,0L-47.2-98.2L-47.2-98.2L-47.2-98.2z
		 M-53.5-115.9L-53.5-115.9c-6.3,0-11.4,5.1-11.4,11.4c0,5,3.3,9.3,7.8,10.8l0,0l2.9-8.8l0,0c-0.8-0.3-1.5-1.1-1.5-2
		c0-0.6,0.2-1.1,0.6-1.5c0.4-0.4,0.9-0.6,1.5-0.6s1.1,0.2,1.5,0.6s0.6,0.9,0.6,1.5c0,0.9-0.6,1.7-1.5,2l0,0l2.9,8.8l0,0
		c4.5-1.5,7.8-5.8,7.8-10.8C-42.1-110.8-47.2-115.9-53.5-115.9L-53.5-115.9c3.1,0,6,1.3,8,3.3c2.1,2.1,3.3,4.9,3.3,8
		c0,5-3.3,9.3-7.8,10.8l0,0l0,0l-2.9-8.8l0,0l0,0c0.9-0.3,1.5-1.1,1.5-2c0-1.2-1-2.2-2.2-2.2s-2.2,1-2.2,2.2c0,1,0.6,1.8,1.5,2l0,0
		l0,0l-2.9,8.8l0,0l0,0c-4.5-1.5-7.8-5.8-7.8-10.8c0-3.1,1.3-6,3.3-8C-59.5-114.6-56.6-115.8-53.5-115.9L-53.5-115.9z M-52.1-93.2
		L-52.1-93.2c-0.5-0.4-1-0.8-1.5-1.3l0,0l0,0c-0.5,0.5-0.9,0.9-1.4,1.3l0,0l0,0c0.5,0.1,1,0.1,1.5,0.1S-52.6-93.2-52.1-93.2
		L-52.1-93.2L-52.1-93.2L-52.1-93.2L-52.1-93.2c-0.5,0-0.9,0.1-1.4,0.1s-1,0-1.5-0.1l0,0l0,0c0.5-0.4,1-0.8,1.4-1.3l0,0l0,0
		C-53.1-94-52.6-93.6-52.1-93.2L-52.1-93.2L-52.1-93.2L-52.1-93.2z M-52.9-95.3L-52.9-95.3c0.6,0.7,1.3,1.3,2,1.9l0,0l0,0h0.1l0,0
		l-1.2-3.1l0,0C-52.2-96.1-52.6-95.7-52.9-95.3L-52.9-95.3L-52.9-95.3L-52.9-95.3L-52.9-95.3c0.3-0.4,0.6-0.8,0.9-1.2l0,0l0,0l1.2,3
		l0,0l0,0h-0.1l0,0l0,0C-51.6-94-52.2-94.6-52.9-95.3L-52.9-95.3L-52.9-95.3L-52.9-95.3z M-53.5-96.1L-53.5-96.1
		c0.4-0.5,0.8-1,1.1-1.6l0,0l-1.1-2.7l-1.1,2.8l0,0C-54.3-97.1-53.9-96.6-53.5-96.1L-53.5-96.1L-53.5-96.1L-53.5-96.1L-53.5-96.1
		c-0.4-0.5-0.7-1-1.1-1.6l0,0l0,0l1.1-2.7l1.1,2.7l0,0l0,0C-52.8-97.1-53.1-96.6-53.5-96.1L-53.5-96.1L-53.5-96.1L-53.5-96.1z
		 M-56.2-93.5L-56.2-93.5c0.7-0.5,1.3-1.1,1.9-1.8l0,0l0,0c-0.3-0.4-0.6-0.7-0.9-1.1l0,0l-1.2,2.9l0,0
		C-56.2-93.5-56.2-93.4-56.2-93.5L-56.2-93.5L-56.2-93.5L-56.2-93.5L-56.2-93.5L-56.2-93.5L-56.2-93.5L-56.2-93.5l1-2.9l0,0l0,0
		c0.3,0.4,0.6,0.8,0.9,1.1l0,0l0,0C-54.8-94.6-55.5-94-56.2-93.5L-56.2-93.5L-56.2-93.5L-56.2-93.5z M-53.5-92L-53.5-92
		c-3.4,0-6.6-1.4-8.8-3.7c-2.3-2.3-3.7-5.4-3.7-8.8s1.4-6.6,3.7-8.8c2.3-2.3,5.4-3.7,8.8-3.7s6.6,1.4,8.8,3.7
		c2.3,2.3,3.7,5.4,3.7,8.8s-1.4,6.6-3.7,8.8C-46.9-93.4-50.1-92-53.5-92L-53.5-92c6.9,0,12.5-5.6,12.5-12.5S-46.6-117-53.5-117
		S-66-111.4-66-104.5S-60.4-92-53.5-92L-53.5-92L-53.5-92z"/>
</g>
<path id="GooglePodcasts" class="st5" d="M518.4,19c0,3.2-1.9,5.2-5.2,5.2c-3.4,0-5.6-2.4-5.6-6.2s2.1-6.1,5.6-6.1
	c2.7,0,4.7,1.6,5.1,4h-1.9c-0.4-1.5-1.6-2.3-3.2-2.3c-2.3,0-3.7,1.7-3.7,4.5c0,2.9,1.4,4.6,3.7,4.6c1.9,0,3.3-1.2,3.3-3.1v-0.2h-3.1
	v-1.5h4.9V19H518.4z M523.7,24.2c-2.5,0-4.1-1.7-4.1-4.5s1.7-4.5,4.1-4.5s4.1,1.7,4.1,4.5C527.8,22.4,526.2,24.2,523.7,24.2z
	 M523.7,22.7c1.4,0,2.3-1.1,2.3-3.1c0-1.9-0.9-3-2.3-3s-2.3,1.1-2.3,3C521.4,21.6,522.3,22.7,523.7,22.7z M532.9,24.2
	c-2.5,0-4.1-1.7-4.1-4.5s1.7-4.5,4.1-4.5s4.1,1.7,4.1,4.5C537,22.4,535.4,24.2,532.9,24.2z M532.9,22.7c1.4,0,2.3-1.1,2.3-3.1
	c0-1.9-0.9-3-2.3-3s-2.3,1.1-2.3,3C530.6,21.6,531.5,22.7,532.9,22.7z M542.1,22.5c1.4,0,2.3-1.1,2.3-2.9s-0.9-3-2.3-3
	c-1.4,0-2.3,1.2-2.3,3S540.7,22.5,542.1,22.5z M542.1,27.3c-2.1,0-3.6-1.1-3.8-2.6h1.8c0.3,0.7,1.1,1.2,2.1,1.2c1.4,0,2.2-0.8,2.2-2
	v-1.4l0,0c-0.5,0.9-1.5,1.6-2.8,1.6c-2.2,0-3.6-1.7-3.6-4.4s1.4-4.5,3.7-4.5c1.2,0,2.2,0.6,2.8,1.6l0,0v-1.5h1.7v8.6
	C546.2,25.9,544.6,27.3,542.1,27.3z M547.9,24V12h1.8v12H547.9z M555.1,16.6c-1.3,0-2.1,1-2.2,2.3h4.4
	C557.2,17.5,556.4,16.6,555.1,16.6z M557.3,21.4h1.7c-0.2,1.6-1.8,2.7-3.8,2.7c-2.6,0-4.1-1.7-4.1-4.5c0-2.7,1.6-4.6,4-4.6
	s3.9,1.7,3.9,4.4V20h-6.2v0.1c0,1.5,0.9,2.5,2.3,2.5C556.3,22.7,557,22.2,557.3,21.4z M564,12h4.5c2.3,0,3.9,1.6,3.9,3.9s-1.7,4-4,4
	h-2.6V24H564V12z M565.8,13.6v4.8h2.1c1.6,0,2.5-0.9,2.5-2.4s-0.9-2.4-2.5-2.4C567.9,13.6,565.8,13.6,565.8,13.6z M577.1,24.2
	c-2.5,0-4.1-1.7-4.1-4.5s1.7-4.5,4.1-4.5s4.1,1.7,4.1,4.5C581.2,22.4,579.6,24.2,577.1,24.2z M577.1,22.7c1.4,0,2.3-1.1,2.3-3.1
	c0-1.9-0.9-3-2.3-3s-2.3,1.1-2.3,3C574.8,21.6,575.7,22.7,577.1,22.7z M585.8,24.1c-2.2,0-3.7-1.8-3.7-4.5s1.5-4.5,3.7-4.5
	c1.3,0,2.2,0.6,2.7,1.6l0,0V12h1.8v12h-1.7v-1.5l0,0C588.1,23.5,587.1,24.1,585.8,24.1z M586.3,16.6c-1.4,0-2.3,1.2-2.3,3
	s0.9,3,2.3,3c1.4,0,2.3-1.2,2.3-3C588.6,17.8,587.7,16.6,586.3,16.6z M599.6,18.3h-1.7c-0.2-0.9-0.9-1.7-2.1-1.7
	c-1.4,0-2.3,1.2-2.3,3c0,1.9,0.9,3,2.3,3c1.1,0,1.8-0.6,2-1.6h1.7c-0.2,1.9-1.7,3.1-3.8,3.1c-2.5,0-4.1-1.7-4.1-4.5s1.6-4.5,4.1-4.5
	C598.1,15.1,599.5,16.6,599.6,18.3z M603.9,22.7c1.3,0,2.2-0.9,2.2-2V20l-2.1,0.1c-1.1,0.1-1.7,0.5-1.7,1.3
	C602.3,22.2,602.9,22.7,603.9,22.7z M603.4,24.1c-1.7,0-2.9-1.1-2.9-2.6s1.2-2.5,3.2-2.6l2.4-0.1v-0.7c0-1-0.7-1.6-1.8-1.6
	c-1,0-1.7,0.5-1.8,1.3h-1.7c0.1-1.6,1.4-2.7,3.6-2.7c2.1,0,3.5,1.1,3.5,2.9v6h-1.7v-1.4l0,0C605.7,23.5,604.6,24.1,603.4,24.1z
	 M609.4,17.7c0-1.6,1.4-2.6,3.4-2.6s3.4,1.1,3.4,2.7h-1.7c-0.1-0.8-0.7-1.4-1.7-1.4s-1.6,0.5-1.6,1.2c0,0.5,0.4,0.9,1.3,1.1l1.4,0.3
	c1.8,0.4,2.5,1.1,2.5,2.4c0,1.6-1.5,2.7-3.5,2.7c-2.2,0-3.5-1.1-3.7-2.7h1.8c0.2,0.9,0.8,1.4,1.9,1.4c1.1,0,1.7-0.4,1.7-1.2
	c0-0.6-0.3-0.9-1.3-1.1l-1.4-0.3C610.2,19.8,609.4,19,609.4,17.7z M618.2,13.2h1.8v2.1h1.7v1.4H620v4.8c0,0.8,0.3,1.1,1.1,1.1
	c0.2,0,0.5,0,0.6,0V24c-0.2,0-0.6,0.1-1,0.1c-1.8,0-2.5-0.7-2.5-2.4v-5H617v-1.4h1.3L618.2,13.2L618.2,13.2z M622.9,17.7
	c0-1.6,1.4-2.6,3.4-2.6s3.4,1.1,3.4,2.7H628c-0.1-0.8-0.7-1.4-1.7-1.4s-1.6,0.5-1.6,1.2c0,0.5,0.4,0.9,1.3,1.1l1.4,0.3
	c1.8,0.4,2.5,1.1,2.5,2.4c0,1.6-1.5,2.7-3.5,2.7c-2.2,0-3.5-1.1-3.7-2.7h1.8c0.2,0.9,0.8,1.4,1.9,1.4c1.1,0,1.7-0.4,1.7-1.2
	c0-0.6-0.3-0.9-1.3-1.1l-1.4-0.3C623.7,19.8,622.9,19,622.9,17.7z"/>
<path id="Stitcher" class="st5" d="M709.6,20.7h1.8c0.2,1.2,1.3,1.9,2.9,1.9c1.5,0,2.6-0.8,2.6-1.9c0-0.9-0.6-1.5-2.2-1.9l-1.3-0.3
	c-2.4-0.5-3.5-1.6-3.5-3.3c0-2.1,1.8-3.5,4.3-3.5s4.3,1.4,4.3,3.5h-1.8c-0.1-1.2-1.1-1.9-2.6-1.9c-1.4,0-2.4,0.7-2.4,1.8
	c0,0.9,0.6,1.5,2.2,1.8l1.3,0.3c2.5,0.5,3.5,1.5,3.5,3.3c0,2.3-1.8,3.7-4.6,3.7C711.5,24.2,709.7,22.8,709.6,20.7z M720.6,13.2h1.8
	v2.1h1.7v1.4h-1.7v4.8c0,0.8,0.3,1.1,1.1,1.1c0.2,0,0.5,0,0.6,0V24c-0.2,0-0.6,0.1-1,0.1c-1.8,0-2.5-0.7-2.5-2.4v-5h-1.3v-1.4h1.3
	L720.6,13.2L720.6,13.2z M725.6,24v-8.7h1.8V24H725.6z M726.5,13.9c-0.6,0-1-0.5-1-1c0-0.6,0.5-1,1-1s1,0.5,1,1S727,13.9,726.5,13.9
	z M729.6,13.2h1.8v2.1h1.7v1.4h-1.7v4.8c0,0.8,0.3,1.1,1.1,1.1c0.2,0,0.5,0,0.6,0V24c-0.2,0-0.6,0.1-1,0.1c-1.8,0-2.5-0.7-2.5-2.4
	v-5h-1.3v-1.4h1.3L729.6,13.2L729.6,13.2z M741.8,18.3h-1.7c-0.2-0.9-0.9-1.7-2.1-1.7c-1.4,0-2.3,1.2-2.3,3c0,1.9,0.9,3,2.3,3
	c1.1,0,1.8-0.6,2-1.6h1.7c-0.2,1.9-1.7,3.1-3.8,3.1c-2.5,0-4.1-1.7-4.1-4.5s1.6-4.5,4.1-4.5C740.2,15.1,741.6,16.6,741.8,18.3z
	 M743,24V12h1.8v4.7l0,0c0.5-1,1.4-1.6,2.8-1.6c1.9,0,3.1,1.3,3.1,3.3V24h-1.8v-5.3c0-1.3-0.6-2.1-1.9-2.1c-1.3,0-2.1,0.9-2.1,2.3v5
	H743V24z M756,16.6c-1.3,0-2.1,1-2.2,2.3h4.4C758.1,17.5,757.2,16.6,756,16.6z M758.1,21.4h1.7c-0.2,1.6-1.8,2.7-3.8,2.7
	c-2.6,0-4.1-1.7-4.1-4.5c0-2.7,1.6-4.6,4-4.6s3.9,1.7,3.9,4.4V20h-6.2v0.1c0,1.5,0.9,2.5,2.3,2.5C757.1,22.7,757.9,22.2,758.1,21.4z
	 M761.2,24v-8.7h1.7v1.5l0,0c0.3-1,1.1-1.6,2.1-1.6c0.3,0,0.5,0,0.6,0.1V17c-0.1-0.1-0.5-0.1-0.8-0.1c-1.2,0-1.9,0.8-1.9,2V24H761.2
	z"/>
<path id="Overcast" class="st5" d="M851.3,11.8c3.4,0,5.6,2.4,5.6,6.2s-2.2,6.2-5.6,6.2c-3.5,0-5.6-2.4-5.6-6.2
	S847.8,11.8,851.3,11.8z M851.3,13.5c-2.3,0-3.7,1.8-3.7,4.6s1.4,4.5,3.7,4.5s3.7-1.8,3.7-4.5C855,15.2,853.6,13.5,851.3,13.5z
	 M865.8,15.3l-3.1,8.7h-1.9l-3.1-8.7h1.9l2.2,7l0,0l2.2-7C864,15.3,865.8,15.3,865.8,15.3z M870.2,16.6c-1.3,0-2.1,1-2.2,2.3h4.4
	C872.3,17.5,871.4,16.6,870.2,16.6z M872.3,21.4h1.7c-0.2,1.6-1.8,2.7-3.8,2.7c-2.6,0-4.1-1.7-4.1-4.5c0-2.7,1.6-4.6,4-4.6
	s3.9,1.7,3.9,4.4V20h-6.2v0.1c0,1.5,0.9,2.5,2.3,2.5C871.3,22.7,872.1,22.2,872.3,21.4z M875.4,24v-8.7h1.7v1.5l0,0
	c0.3-1,1.1-1.6,2.1-1.6c0.3,0,0.5,0,0.6,0.1V17c-0.1-0.1-0.5-0.1-0.8-0.1c-1.2,0-1.9,0.8-1.9,2V24H875.4z M888,18.3h-1.7
	c-0.2-0.9-0.9-1.7-2.1-1.7c-1.4,0-2.3,1.2-2.3,3c0,1.9,0.9,3,2.3,3c1.1,0,1.8-0.6,2-1.6h1.7c-0.2,1.9-1.7,3.1-3.8,3.1
	c-2.5,0-4.1-1.7-4.1-4.5s1.6-4.5,4.1-4.5C886.5,15.1,887.9,16.6,888,18.3z M892.3,22.7c1.3,0,2.2-0.9,2.2-2V20l-2.1,0.1
	c-1.1,0.1-1.7,0.5-1.7,1.3C890.7,22.2,891.3,22.7,892.3,22.7z M891.8,24.1c-1.7,0-2.9-1.1-2.9-2.6s1.2-2.5,3.2-2.6l2.4-0.1v-0.7
	c0-1-0.7-1.6-1.8-1.6c-1,0-1.7,0.5-1.8,1.3h-1.7c0.1-1.6,1.4-2.7,3.6-2.7c2.1,0,3.5,1.1,3.5,2.9v6h-1.7v-1.4l0,0
	C894,23.5,892.9,24.1,891.8,24.1z M897.8,17.7c0-1.6,1.4-2.6,3.4-2.6s3.4,1.1,3.4,2.7h-1.7c-0.1-0.8-0.7-1.4-1.7-1.4
	s-1.6,0.5-1.6,1.2c0,0.5,0.4,0.9,1.3,1.1l1.4,0.3c1.8,0.4,2.5,1.1,2.5,2.4c0,1.6-1.5,2.7-3.5,2.7c-2.2,0-3.5-1.1-3.7-2.7h1.8
	c0.2,0.9,0.8,1.4,1.9,1.4c1.1,0,1.7-0.4,1.7-1.2c0-0.6-0.3-0.9-1.3-1.1l-1.4-0.3C898.6,19.8,897.8,19,897.8,17.7z M906.6,13.2h1.8
	v2.1h1.7v1.4h-1.7v4.8c0,0.8,0.3,1.1,1.1,1.1c0.2,0,0.5,0,0.6,0V24c-0.2,0-0.6,0.1-1,0.1c-1.8,0-2.5-0.7-2.5-2.4v-5h-1.3v-1.4h1.3
	L906.6,13.2L906.6,13.2z"/>
<path id="Pandora" class="st5" d="M990.1,12h4.5c2.3,0,3.9,1.6,3.9,3.9s-1.7,4-4,4H992V24h-1.9V12z M992,13.6v4.8h2.1
	c1.6,0,2.5-0.9,2.5-2.4s-0.9-2.4-2.5-2.4C994.1,13.6,992,13.6,992,13.6z M1002.2,22.7c1.3,0,2.2-0.9,2.2-2V20l-2.1,0.1
	c-1.1,0.1-1.7,0.5-1.7,1.3C1000.6,22.2,1001.3,22.7,1002.2,22.7z M1001.7,24.1c-1.7,0-2.9-1.1-2.9-2.6s1.2-2.5,3.2-2.6l2.4-0.1v-0.7
	c0-1-0.7-1.6-1.8-1.6c-1,0-1.7,0.5-1.8,1.3h-1.7c0.1-1.6,1.4-2.7,3.6-2.7c2.1,0,3.5,1.1,3.5,2.9v6h-1.7v-1.4l0,0
	C1004,23.5,1002.9,24.1,1001.7,24.1z M1007.9,24v-8.7h1.7v1.5l0,0c0.5-1,1.4-1.6,2.7-1.6c1.9,0,3,1.2,3,3.2V24h-1.8v-5.3
	c0-1.3-0.6-2-1.9-2c-1.3,0-2.1,0.9-2.1,2.2V24H1007.9z M1020.4,24.1c-2.2,0-3.7-1.8-3.7-4.5s1.5-4.5,3.7-4.5c1.3,0,2.2,0.6,2.7,1.6
	l0,0V12h1.8v12h-1.7v-1.5l0,0C1022.6,23.5,1021.6,24.1,1020.4,24.1z M1020.8,16.6c-1.4,0-2.3,1.2-2.3,3s0.9,3,2.3,3
	c1.4,0,2.3-1.2,2.3-3C1023.1,17.8,1022.2,16.6,1020.8,16.6z M1030.4,24.2c-2.5,0-4.1-1.7-4.1-4.5s1.7-4.5,4.1-4.5s4.1,1.7,4.1,4.5
	C1034.6,22.4,1032.9,24.2,1030.4,24.2z M1030.4,22.7c1.4,0,2.3-1.1,2.3-3.1c0-1.9-0.9-3-2.3-3s-2.3,1.1-2.3,3
	C1028.1,21.6,1029,22.7,1030.4,22.7z M1035.9,24v-8.7h1.7v1.5l0,0c0.3-1,1.1-1.6,2.1-1.6c0.3,0,0.5,0,0.6,0.1V17
	c-0.1-0.1-0.5-0.1-0.8-0.1c-1.2,0-1.9,0.8-1.9,2V24H1035.9z M1044.2,22.7c1.3,0,2.2-0.9,2.2-2V20l-2.1,0.1c-1.1,0.1-1.7,0.5-1.7,1.3
	C1042.6,22.2,1043.3,22.7,1044.2,22.7z M1043.7,24.1c-1.7,0-2.9-1.1-2.9-2.6s1.2-2.5,3.2-2.6l2.4-0.1v-0.7c0-1-0.7-1.6-1.8-1.6
	c-1,0-1.7,0.5-1.8,1.3h-1.7c0.1-1.6,1.4-2.7,3.6-2.7c2.1,0,3.5,1.1,3.5,2.9v6h-1.7v-1.4l0,0C1046,23.5,1044.9,24.1,1043.7,24.1z"/>
<path id="Spotify" class="st5" d="M221.6,20.7h1.8c0.2,1.2,1.3,1.9,2.9,1.9c1.5,0,2.6-0.8,2.6-1.9c0-0.9-0.6-1.5-2.2-1.9l-1.3-0.3
	c-2.4-0.5-3.5-1.6-3.5-3.3c0-2.1,1.8-3.5,4.3-3.5s4.3,1.4,4.3,3.5h-1.8c-0.1-1.2-1.1-1.9-2.6-1.9c-1.4,0-2.4,0.7-2.4,1.8
	c0,0.9,0.6,1.5,2.2,1.8l1.3,0.3c2.5,0.5,3.5,1.5,3.5,3.3c0,2.3-1.8,3.7-4.6,3.7C223.5,24.2,221.7,22.8,221.6,20.7z M236.7,15.1
	c2.2,0,3.7,1.7,3.7,4.5s-1.5,4.5-3.6,4.5c-1.3,0-2.2-0.6-2.7-1.6l0,0v4.3h-1.8V15.3h1.7v1.5l0,0C234.4,15.8,235.4,15.1,236.7,15.1z
	 M236.2,22.6c1.4,0,2.3-1.2,2.3-3s-0.9-3-2.3-3c-1.4,0-2.3,1.2-2.3,3C233.9,21.5,234.8,22.6,236.2,22.6z M245.4,24.2
	c-2.5,0-4.1-1.7-4.1-4.5s1.7-4.5,4.1-4.5s4.1,1.7,4.1,4.5C249.5,22.4,247.9,24.2,245.4,24.2z M245.4,22.7c1.4,0,2.3-1.1,2.3-3.1
	c0-1.9-0.9-3-2.3-3s-2.3,1.1-2.3,3C243.1,21.6,244,22.7,245.4,22.7z M251.4,13.2h1.8v2.1h1.7v1.4h-1.7v4.8c0,0.8,0.3,1.1,1.1,1.1
	c0.2,0,0.5,0,0.6,0V24c-0.2,0-0.6,0.1-1,0.1c-1.8,0-2.5-0.7-2.5-2.4v-5h-1.3v-1.4h1.3L251.4,13.2L251.4,13.2z M256.3,24v-8.7h1.8V24
	H256.3z M257.2,13.9c-0.6,0-1-0.5-1-1c0-0.6,0.5-1,1-1s1,0.5,1,1S257.8,13.9,257.2,13.9z M260.4,24v-7.3h-1.2v-1.4h1.2v-0.9
	c0-1.7,0.8-2.5,2.6-2.5c0.4,0,0.8,0,1,0.1v1.3c-0.2,0-0.4,0-0.7,0c-0.8,0-1.1,0.4-1.1,1.2v0.8h1.8v1.4h-1.7V24H260.4z M266.1,27.3
	c-0.1,0-0.6,0-0.7,0v-1.5c0.1,0,0.4,0,0.6,0c0.8,0,1.3-0.3,1.6-1.2l0.2-0.5l-3.2-8.7h1.9l2.2,7.1l0,0l2.2-7.1h1.9l-3.3,9.2
	C268.8,26.6,267.9,27.3,266.1,27.3z"/>
<circle class="st15" cx="968.5" cy="12.5" r="12.5"/>
<circle class="st0" cx="968.5" cy="12.5" r="12.5"/>
<image style="overflow:visible;enable-background:new    ;" width="221" height="284" id="Bitmap" xlink:href="E5C725D8254E8635.png"  transform="matrix(6.174893e-02 0 0 6.174893e-02 962.1768 4.2317)">
</image>
<path class="st0" d="M1265.9,33c-0.3,0-0.6,0-0.9,0c-0.6,0-1.3,0-2-0.2c-0.6-0.1-1.2-0.3-1.7-0.6s-1-0.6-1.5-1.1
	c-0.4-0.4-0.8-0.9-1.1-1.5c-0.3-0.5-0.5-1.1-0.6-1.7c-0.1-0.7-0.2-1.4-0.2-2c0-0.2,0-1,0-1v-24c0,0,0-0.7,0-0.9c0-0.5,0-1.3,0.2-2
	c0.1-0.6,0.3-1.2,0.6-1.7c0.3-0.5,0.6-1,1.1-1.5c0.4-0.4,0.9-0.8,1.5-1.1c0.5-0.3,1.1-0.5,1.7-0.6c0.7-0.1,1.4-0.2,2-0.2h0.9h84.1h1
	c0.5,0,1.3,0,1.9,0.2c0.6,0.1,1.2,0.3,1.8,0.6c0.5,0.3,1,0.6,1.5,1.1c0.4,0.4,0.8,0.9,1.1,1.5c0.3,0.5,0.5,1.1,0.6,1.7
	c0.1,0.7,0.2,1.3,0.2,2c0,0.3,0,0.6,0,0.9c0,0.4,0,0.8,0,1.1v21.9c0,0.4,0,0.8,0,1.1c0,0.3,0,0.7,0,1c0,0.6-0.1,1.3-0.2,1.9
	s-0.3,1.2-0.6,1.7c-0.3,0.5-0.6,1-1.1,1.4c-0.4,0.4-0.9,0.8-1.5,1.1c-0.5,0.3-1.1,0.5-1.7,0.6c-0.7,0.1-1.4,0.2-2,0.2
	c-0.3,0-0.6,0-0.9,0h-1.1L1265.9,33z"/>
<path class="st4" d="M1299,7.9V2.1h0.9v5h2.8v0.8H1299z M1304,3c-0.3,0-0.5-0.2-0.5-0.5s0.2-0.5,0.5-0.5s0.5,0.2,0.5,0.5
	S1304.3,3,1304,3z M1303.6,7.9V3.7h0.8v4.2C1304.4,7.9,1303.6,7.9,1303.6,7.9z M1305.3,7.3l0.4-0.6c0.3,0.3,0.9,0.6,1.5,0.6
	s0.9-0.2,0.9-0.6s-0.5-0.6-1.1-0.7c-0.7-0.2-1.6-0.4-1.6-1.3c0-0.7,0.6-1.2,1.7-1.2c0.8,0,1.3,0.3,1.7,0.6l-0.4,0.5
	c-0.3-0.3-0.7-0.5-1.3-0.5c-0.6,0-0.9,0.2-0.9,0.5c0,0.4,0.5,0.5,1,0.6c0.8,0.2,1.7,0.4,1.7,1.3c0,0.7-0.6,1.3-1.8,1.3
	C1306.4,8,1305.7,7.8,1305.3,7.3z M1311.1,8c-0.7,0-1-0.4-1-1V4.4h-0.7V3.7h0.7V2.6h0.8v1.1h0.9v0.7h-0.9v2.4c0,0.3,0.1,0.5,0.4,0.5
	c0.2,0,0.4-0.1,0.4-0.2l0.2,0.6C1311.8,7.9,1311.5,8,1311.1,8z M1312.4,5.8c0-1.2,0.9-2.2,2.2-2.2c1.3,0,2.1,1,2.1,2.3v0.2h-3.5
	c0.1,0.7,0.6,1.3,1.5,1.3c0.5,0,1-0.2,1.3-0.5l0.4,0.5c-0.4,0.4-1.1,0.6-1.8,0.6C1313.3,8,1312.4,7.1,1312.4,5.8z M1314.6,4.2
	c-0.9,0-1.3,0.7-1.3,1.3h2.7C1315.9,4.9,1315.5,4.2,1314.6,4.2z M1320.7,7.9V5.2c0-0.7-0.4-0.9-0.9-0.9s-1,0.3-1.2,0.6v3h-0.8V3.7
	h0.8v0.6c0.3-0.3,0.9-0.7,1.6-0.7c0.9,0,1.4,0.5,1.4,1.4v2.9H1320.7z M1327,8c-1.4,0-2.2-1-2.2-2.2s0.9-2.2,2.2-2.2
	c1.4,0,2.2,1,2.2,2.2S1328.4,8,1327,8z M1327,7.3c0.9,0,1.4-0.7,1.4-1.5s-0.5-1.5-1.4-1.5s-1.4,0.7-1.4,1.5S1326.1,7.3,1327,7.3z
	 M1333.2,7.9V5.2c0-0.7-0.4-0.9-0.9-0.9s-1,0.3-1.2,0.6v3h-0.8V3.7h0.8v0.6c0.3-0.3,0.9-0.7,1.6-0.7c0.9,0,1.4,0.5,1.4,1.4v2.9
	H1333.2z"/>
<rect id="Rectangle" x="679" y="8" class="st16" width="4.5" height="15"/>
<rect x="684" y="6" class="st17" width="4.5" height="15"/>
<rect x="689" y="8" class="st18" width="4.5" height="15"/>
<rect x="694" y="5" class="st19" width="4.5" height="15"/>
<rect x="699" y="7" class="st20" width="4.5" height="15"/>
<path id="TuneIn" class="st5" d="M1304.9,24h-1.9V13.6h-3.7V12h9.2v1.6h-3.7L1304.9,24L1304.9,24z M1315.7,15.3V24h-1.7v-1.5l0,0
	c-0.5,1-1.4,1.6-2.7,1.6c-1.9,0-3.1-1.2-3.1-3.2v-5.7h1.8v5.3c0,1.3,0.6,2,1.9,2s2.1-0.9,2.1-2.3v-5.1h1.7L1315.7,15.3L1315.7,15.3z
	 M1317.4,24v-8.7h1.7v1.5l0,0c0.5-1,1.4-1.6,2.7-1.6c1.9,0,3,1.2,3,3.2V24h-1.8v-5.3c0-1.3-0.6-2-1.9-2s-2.1,0.9-2.1,2.2V24H1317.4z
	 M1330.2,16.6c-1.3,0-2.1,1-2.2,2.3h4.4C1332.3,17.5,1331.5,16.6,1330.2,16.6z M1332.4,21.4h1.7c-0.2,1.6-1.8,2.7-3.8,2.7
	c-2.6,0-4.1-1.7-4.1-4.5c0-2.7,1.6-4.6,4-4.6s3.9,1.7,3.9,4.4V20h-6.2v0.1c0,1.5,0.9,2.5,2.3,2.5
	C1331.4,22.7,1332.1,22.2,1332.4,21.4z M1337.5,24h-1.9V12h1.9V24z M1339.4,24v-8.7h1.7v1.5l0,0c0.5-1,1.4-1.6,2.7-1.6
	c1.9,0,3,1.2,3,3.2V24h-1.8v-5.3c0-1.3-0.6-2-1.9-2s-2.1,0.9-2.1,2.2V24H1339.4z"/>
<g id="tunein-radio-2017" transform="translate(1333.000000, 125.000000)">
	<path class="st21" d="M-48.1-113.9v-0.5c0-0.1,0-0.1,0.1-0.1h1.5c0.1,0,0.1,0,0.1,0.1v0.5c0,0.1,0,0.1-0.1,0.1h-0.4l0,0v2l0,0h0.4
		c0.1,0,0.1,0,0.1,0.1v0.5c0,0.1,0,0.1-0.1,0.1H-48c-0.1,0-0.1,0-0.1-0.1v-0.5c0-0.1,0-0.1,0.1-0.1h0.4l0,0v-2l0,0L-48.1-113.9
		C-48-113.8-48.1-113.8-48.1-113.9z M-45.7-114.4C-45.7-114.4-45.7-114.5-45.7-114.4l0.7-0.1c0.1,0,0.1,0,0.1,0.1l0.7,1.9l0,0v-1.9
		c0-0.1,0-0.1,0.1-0.1h0.5c0.1,0,0.1,0,0.1,0.1v3.3c0,0.1,0,0.1-0.1,0.1h-0.6c-0.1,0-0.1,0-0.1-0.1l-0.7-1.7l0,0v1.7
		c0,0.1,0,0.1-0.1,0.1h-0.5c-0.1,0-0.1,0-0.1-0.1C-45.7-111.1-45.7-114.4-45.7-114.4z M-65.2-113.7h14.4v6.9c0,0,0,0.1-0.1,0.1
		h-14.4c0,0-0.1,0-0.1-0.1L-65.2-113.7L-65.2-113.7z M-41-108.9v-7.7c0-0.2-0.2-0.4-0.4-0.4h-9c-0.2,0-0.4,0.2-0.4,0.4v2.1h-14.9
		c-0.2,0-0.4,0.2-0.4,0.4v7.7c0,0.2,0.2,0.4,0.4,0.4h15.2c0.2,0,0.4-0.2,0.4-0.4v-2.1h8.6C-41.2-108.5-41-108.7-41-108.9L-41-108.9z
		"/>
	<path id="Fill-2" class="st21" d="M-55.5-108.6v-3.3c0-0.1,0-0.1-0.1-0.1h-0.5c-0.1,0-0.1,0-0.1,0.1v1.9l0,0l-0.7-1.9
		c0,0,0-0.1-0.1-0.1h-0.6c-0.1,0-0.1,0-0.1,0.1v3.3c0,0.1,0,0.1,0.1,0.1h0.5c0.1,0,0.1,0,0.1-0.1v-1.7l0,0l0.7,1.7
		c0,0,0,0.1,0.1,0.1L-55.5-108.6C-55.5-108.5-55.5-108.6-55.5-108.6z M-61.1-111.4v-0.5c0-0.1,0-0.1-0.1-0.1h-2
		c-0.1,0-0.1,0-0.1,0.1v0.5c0,0.1,0,0.1,0.1,0.1h0.6l0,0v2.6c0,0.1,0,0.1,0.1,0.1h0.5c0.1,0,0.1,0,0.1-0.1v-2.6l0,0h0.6
		C-61.2-111.3-61.1-111.3-61.1-111.4z M-58.3-109.6v-2.3c0-0.1,0-0.1-0.1-0.1h-0.5c-0.1,0-0.1,0-0.1,0.1v2.3c0,0.2-0.2,0.4-0.5,0.4
		s-0.5-0.2-0.5-0.4v-2.3c0-0.1,0-0.1-0.1-0.1h-0.5c-0.1,0-0.1,0-0.1,0.1v2.3c0,0.6,0.5,1.1,1.2,1.1C-58.8-108.5-58.3-109-58.3-109.6
		z M-54.9-111.9v3.3c0,0.1,0,0.1,0.1,0.1h1.8c0.1,0,0.1,0,0.1-0.1v-0.5c0-0.1,0-0.1-0.1-0.1h-1.2h-0.1v-0.6c0,0,0,0,0.1,0h1.1
		c0.1,0,0.1,0,0.1-0.1v-0.5c0-0.1,0-0.1-0.1-0.1h-1.1h-0.1v-0.6c0,0,0,0,0.1,0h1.2c0.1,0,0.1,0,0.1-0.1v-0.5c0-0.1,0-0.1-0.1-0.1
		L-54.9-111.9C-54.9-112-54.9-112-54.9-111.9L-54.9-111.9z"/>
</g>
<path id="Path-Copy-7_1_" class="st0" d="M1096.9,33c-0.3,0-0.6,0-0.9,0c-0.6,0-1.3,0-2-0.2c-0.6-0.1-1.2-0.3-1.7-0.6
	s-1-0.6-1.5-1.1c-0.4-0.4-0.8-0.9-1.1-1.5c-0.3-0.5-0.5-1.1-0.6-1.7c-0.1-0.7-0.2-1.4-0.2-2c0-0.2,0-1,0-1v-24c0,0,0-0.7,0-0.9
	c0-0.5,0-1.3,0.2-2c0.1-0.6,0.3-1.2,0.6-1.7c0.3-0.5,0.6-1,1.1-1.5c0.4-0.4,0.9-0.8,1.5-1.1c0.5-0.3,1.1-0.5,1.7-0.6
	c0.7-0.1,1.4-0.2,2-0.2h0.9H1211h1c0.5,0,1.3,0,1.9,0.2c0.6,0.1,1.2,0.3,1.8,0.6c0.5,0.3,1,0.6,1.5,1.1c0.4,0.4,0.8,0.9,1.1,1.5
	c0.3,0.5,0.5,1.1,0.6,1.7c0.1,0.7,0.2,1.3,0.2,2c0,0.3,0,0.6,0,0.9c0,0.4,0,0.8,0,1.1v21.9c0,0.4,0,0.8,0,1.1c0,0.3,0,0.7,0,1
	c0,0.6-0.1,1.3-0.2,1.9s-0.3,1.2-0.6,1.7c-0.3,0.5-0.6,1-1.1,1.4c-0.4,0.4-0.9,0.8-1.5,1.1c-0.5,0.3-1.1,0.5-1.7,0.6
	c-0.7,0.1-1.4,0.2-2,0.2c-0.3,0-0.6,0-0.9,0h-1.1L1096.9,33z"/>
<path id="Listenon-Copy-7_1_" class="st4" d="M1129,7.9V2.1h0.9v5h2.8v0.8H1129z M1134,3c-0.3,0-0.5-0.2-0.5-0.5s0.2-0.5,0.5-0.5
	s0.5,0.2,0.5,0.5S1134.3,3,1134,3z M1133.6,7.9V3.7h0.8v4.2C1134.4,7.9,1133.6,7.9,1133.6,7.9z M1135.3,7.3l0.4-0.6
	c0.3,0.3,0.9,0.6,1.5,0.6s0.9-0.2,0.9-0.6s-0.5-0.6-1.1-0.7c-0.7-0.2-1.6-0.4-1.6-1.3c0-0.7,0.6-1.2,1.7-1.2c0.8,0,1.3,0.3,1.7,0.6
	l-0.4,0.5c-0.3-0.3-0.7-0.5-1.3-0.5c-0.6,0-0.9,0.2-0.9,0.5c0,0.4,0.5,0.5,1,0.6c0.8,0.2,1.7,0.4,1.7,1.3c0,0.7-0.6,1.3-1.8,1.3
	C1136.4,8,1135.7,7.8,1135.3,7.3z M1141.1,8c-0.7,0-1-0.4-1-1V4.4h-0.7V3.7h0.7V2.6h0.8v1.1h0.9v0.7h-0.9v2.4c0,0.3,0.1,0.5,0.4,0.5
	c0.2,0,0.4-0.1,0.4-0.2l0.2,0.6C1141.8,7.9,1141.5,8,1141.1,8z M1142.4,5.8c0-1.2,0.9-2.2,2.2-2.2c1.3,0,2.1,1,2.1,2.3v0.2h-3.5
	c0.1,0.7,0.6,1.3,1.5,1.3c0.5,0,1-0.2,1.3-0.5l0.4,0.5c-0.4,0.4-1.1,0.6-1.8,0.6C1143.3,8,1142.4,7.1,1142.4,5.8z M1144.6,4.2
	c-0.9,0-1.3,0.7-1.3,1.3h2.7C1145.9,4.9,1145.5,4.2,1144.6,4.2z M1150.7,7.9V5.2c0-0.7-0.4-0.9-0.9-0.9s-1,0.3-1.2,0.6v3h-0.8V3.7
	h0.8v0.6c0.3-0.3,0.9-0.7,1.6-0.7c0.9,0,1.4,0.5,1.4,1.4v2.9H1150.7z M1157,8c-1.4,0-2.2-1-2.2-2.2s0.9-2.2,2.2-2.2
	c1.4,0,2.2,1,2.2,2.2S1158.4,8,1157,8z M1157,7.3c0.9,0,1.4-0.7,1.4-1.5s-0.5-1.5-1.4-1.5s-1.4,0.7-1.4,1.5S1156.1,7.3,1157,7.3z
	 M1163.2,7.9V5.2c0-0.7-0.4-0.9-0.9-0.9s-1,0.3-1.2,0.6v3h-0.8V3.7h0.8v0.6c0.3-0.3,0.9-0.7,1.6-0.7c0.9,0,1.4,0.5,1.4,1.4v2.9
	H1163.2z"/>
<g>
	<path class="st22" d="M1098,24.7h24.7V0H1098V24.7z M1099.6,23.1h21.4V1.7h-21.4V23.1z"/>
	<path class="st22" d="M1102.9,5v14.8h14.8L1102.9,5z M1116.6,15.4l-9.3-9.3l1.2-1.2l9.3,9.3L1116.6,15.4z M1116.6,10.8l-4.6-4.6
		l1.2-1.2l4.6,4.6L1116.6,10.8z"/>
</g>
<g>
	<path class="st5" d="M1131.4,23.7c-0.7-0.3-1.2-0.7-1.6-1.2c-0.4-0.5-0.6-1.1-0.7-1.8l0-0.1h1.8l0,0.1c0.1,0.4,0.2,0.7,0.5,1
		s0.6,0.5,1,0.6c0.4,0.1,0.9,0.2,1.4,0.2c0.5,0,1-0.1,1.4-0.2c0.4-0.1,0.7-0.4,0.9-0.6c0.2-0.3,0.3-0.6,0.3-1v0
		c0-0.5-0.2-0.9-0.5-1.2s-0.9-0.5-1.7-0.7l-1.3-0.3c-1.2-0.2-2-0.6-2.6-1.2s-0.9-1.3-0.9-2.2v0c0-0.7,0.2-1.3,0.6-1.8
		c0.4-0.5,0.9-0.9,1.5-1.2c0.7-0.3,1.4-0.4,2.2-0.4c0.8,0,1.6,0.1,2.2,0.4c0.6,0.3,1.1,0.7,1.5,1.2c0.4,0.5,0.6,1.1,0.6,1.8l0,0.1
		h-1.8l0-0.1c0-0.4-0.2-0.7-0.4-1c-0.2-0.3-0.5-0.5-0.9-0.6c-0.4-0.1-0.8-0.2-1.3-0.2c-0.5,0-0.9,0.1-1.3,0.2
		c-0.4,0.1-0.6,0.4-0.8,0.6s-0.3,0.6-0.3,0.9v0c0,0.4,0.2,0.8,0.5,1.1c0.4,0.3,0.9,0.5,1.7,0.7l1.3,0.3c1.2,0.3,2.1,0.7,2.7,1.2
		s0.8,1.3,0.8,2.2v0c0,0.7-0.2,1.4-0.6,1.9s-0.9,0.9-1.6,1.2c-0.7,0.3-1.5,0.4-2.4,0.4C1132.8,24.1,1132,24,1131.4,23.7z"/>
	<path class="st5" d="M1139.9,13.5c-0.2-0.2-0.3-0.4-0.3-0.7c0-0.3,0.1-0.5,0.3-0.7c0.2-0.2,0.5-0.3,0.7-0.3c0.3,0,0.5,0.1,0.7,0.3
		s0.3,0.4,0.3,0.7c0,0.3-0.1,0.5-0.3,0.7c-0.2,0.2-0.5,0.3-0.7,0.3C1140.3,13.9,1140.1,13.8,1139.9,13.5z M1139.7,15.2h1.8v8.7h-1.8
		V15.2z"/>
	<path class="st5" d="M1143.3,15.2h1.8v1.4h0c0.2-0.5,0.5-0.8,0.9-1.1c0.4-0.3,0.9-0.4,1.5-0.4c0.4,0,0.8,0.1,1.1,0.2
		c0.3,0.1,0.6,0.3,0.8,0.6c0.2,0.3,0.4,0.6,0.5,0.9h0c0.2-0.4,0.4-0.7,0.6-0.9c0.3-0.3,0.6-0.5,0.9-0.6c0.4-0.1,0.7-0.2,1.2-0.2
		c0.6,0,1.1,0.1,1.5,0.4c0.4,0.2,0.8,0.6,1,1s0.4,0.9,0.4,1.5v6h-1.8v-5.6c0-0.6-0.1-1-0.4-1.3c-0.3-0.3-0.7-0.5-1.2-0.5
		c-0.4,0-0.7,0.1-0.9,0.2c-0.3,0.2-0.5,0.4-0.6,0.7s-0.2,0.6-0.2,1v5.5h-1.8v-5.7c0-0.5-0.1-0.9-0.4-1.2s-0.7-0.4-1.2-0.4
		c-0.3,0-0.7,0.1-0.9,0.3c-0.3,0.2-0.5,0.4-0.6,0.7s-0.2,0.6-0.2,1v5.4h-1.8V15.2z"/>
	<path class="st5" d="M1157.2,15.2h1.8v1.5h0c0.2-0.3,0.4-0.6,0.7-0.9c0.3-0.2,0.6-0.4,0.9-0.6s0.7-0.2,1.1-0.2
		c0.7,0,1.4,0.2,1.9,0.6c0.5,0.4,1,0.9,1.3,1.6s0.4,1.5,0.4,2.4v0c0,0.9-0.2,1.7-0.5,2.4c-0.3,0.7-0.7,1.2-1.3,1.6
		c-0.5,0.4-1.2,0.6-1.9,0.6c-0.4,0-0.8-0.1-1.1-0.2c-0.4-0.1-0.7-0.3-0.9-0.6c-0.3-0.2-0.5-0.5-0.7-0.9h0v4.4h-1.8V15.2z
		 M1162.6,22.2c0.3-0.2,0.6-0.6,0.8-1c0.2-0.4,0.3-1,0.3-1.6v0c0-0.6-0.1-1.2-0.3-1.6c-0.2-0.4-0.4-0.8-0.8-1
		c-0.3-0.2-0.8-0.4-1.2-0.4c-0.5,0-0.9,0.1-1.2,0.4s-0.6,0.6-0.8,1s-0.3,1-0.3,1.6v0c0,0.6,0.1,1.1,0.3,1.6s0.5,0.8,0.8,1
		s0.7,0.4,1.2,0.4C1161.8,22.6,1162.2,22.4,1162.6,22.2z"/>
	<path class="st5" d="M1166.8,12h1.8v12h-1.8V12z"/>
	<path class="st5" d="M1171.9,23.6c-0.6-0.4-1.1-0.9-1.4-1.6s-0.5-1.5-0.5-2.4v0c0-0.9,0.2-1.7,0.5-2.4s0.8-1.2,1.4-1.6
		c0.6-0.4,1.3-0.6,2.1-0.6c0.8,0,1.5,0.2,2.1,0.5c0.6,0.4,1,0.9,1.4,1.5s0.5,1.4,0.5,2.3V20h-7.1v-1.3h6.2l-0.9,1.2v-0.7
		c0-0.6-0.1-1.1-0.3-1.5c-0.2-0.4-0.4-0.7-0.8-0.9s-0.7-0.3-1.1-0.3c-0.4,0-0.8,0.1-1.1,0.3c-0.3,0.2-0.6,0.5-0.8,0.9
		c-0.2,0.4-0.3,0.9-0.3,1.5v0.7c0,0.6,0.1,1,0.3,1.4c0.2,0.4,0.5,0.7,0.8,0.9s0.8,0.3,1.3,0.3c0.4,0,0.7-0.1,0.9-0.2
		c0.3-0.1,0.5-0.3,0.7-0.4s0.3-0.4,0.4-0.6l0-0.1h1.7l0,0.1c-0.1,0.3-0.2,0.7-0.4,1c-0.2,0.3-0.5,0.6-0.8,0.9s-0.7,0.4-1.1,0.6
		c-0.4,0.1-0.9,0.2-1.4,0.2C1173.3,24.1,1172.5,23.9,1171.9,23.6z"/>
	<path class="st5" d="M1180.8,23.5c-0.6-0.4-1.1-0.9-1.4-1.6s-0.5-1.5-0.5-2.4v0c0-0.9,0.2-1.7,0.5-2.4c0.3-0.7,0.8-1.2,1.4-1.6
		c0.6-0.4,1.3-0.6,2.2-0.6c0.7,0,1.4,0.1,1.9,0.4c0.5,0.3,1,0.7,1.3,1.1c0.3,0.5,0.5,1,0.5,1.5l0,0.1h-1.7l0-0.1
		c-0.1-0.4-0.3-0.8-0.6-1.1s-0.8-0.5-1.4-0.5c-0.5,0-0.9,0.1-1.2,0.4s-0.6,0.6-0.8,1c-0.2,0.5-0.3,1-0.3,1.6v0
		c0,0.6,0.1,1.2,0.3,1.6s0.5,0.8,0.8,1s0.8,0.4,1.2,0.4c0.6,0,1-0.1,1.3-0.4c0.3-0.3,0.6-0.7,0.7-1.1l0-0.1h1.7V21
		c-0.1,0.6-0.3,1.1-0.6,1.6s-0.8,0.8-1.3,1.1c-0.5,0.3-1.2,0.4-1.9,0.4C1182.2,24.1,1181.4,23.9,1180.8,23.5z"/>
	<path class="st5" d="M1189,23.8c-0.4-0.2-0.8-0.5-1-0.9c-0.2-0.4-0.4-0.9-0.4-1.4v0c0-0.8,0.3-1.4,0.9-1.8s1.4-0.7,2.4-0.8l3.3-0.2
		v1.3l-3.1,0.2c-0.5,0-1,0.2-1.2,0.4c-0.3,0.2-0.4,0.5-0.4,0.9v0c0,0.4,0.1,0.7,0.4,0.9c0.3,0.2,0.7,0.3,1.2,0.3
		c0.4,0,0.8-0.1,1.1-0.3s0.6-0.4,0.8-0.7c0.2-0.3,0.3-0.6,0.3-1v-2.6c0-0.5-0.1-0.9-0.4-1.1c-0.3-0.3-0.7-0.4-1.3-0.4
		c-0.5,0-0.9,0.1-1.2,0.3c-0.3,0.2-0.5,0.5-0.6,0.9l0,0.1h-1.7l0-0.1c0-0.5,0.2-1,0.5-1.4c0.3-0.4,0.7-0.7,1.2-1s1.1-0.3,1.9-0.3
		c0.7,0,1.3,0.1,1.9,0.4c0.5,0.2,0.9,0.6,1.2,1s0.4,0.9,0.4,1.5v6h-1.8v-1.4h0c-0.2,0.3-0.4,0.6-0.7,0.8s-0.6,0.4-0.9,0.5
		c-0.3,0.1-0.7,0.2-1.1,0.2C1190,24.1,1189.5,24,1189,23.8z"/>
	<path class="st5" d="M1198.1,23.8c-0.5-0.2-0.9-0.5-1.2-0.9s-0.5-0.9-0.5-1.4l0-0.1h1.8l0,0.1c0.1,0.4,0.3,0.7,0.6,0.9
		c0.3,0.2,0.7,0.3,1.3,0.3c0.4,0,0.7,0,0.9-0.1c0.3-0.1,0.5-0.2,0.6-0.4c0.1-0.2,0.2-0.4,0.2-0.6v0c0-0.3-0.1-0.5-0.3-0.7
		c-0.2-0.2-0.5-0.3-1-0.4l-1.4-0.3c-0.8-0.2-1.5-0.5-1.9-0.9c-0.4-0.4-0.6-0.9-0.6-1.6v0c0-0.5,0.1-1,0.4-1.4
		c0.3-0.4,0.7-0.7,1.2-0.9c0.5-0.2,1.1-0.3,1.8-0.3c0.7,0,1.3,0.1,1.8,0.3s0.9,0.5,1.2,1s0.4,0.8,0.5,1.3v0.1h-1.7l0-0.1
		c0-0.4-0.2-0.7-0.5-0.9c-0.3-0.2-0.7-0.4-1.2-0.4c-0.3,0-0.6,0-0.8,0.1s-0.4,0.2-0.5,0.4c-0.1,0.2-0.2,0.4-0.2,0.6v0
		c0,0.3,0.1,0.5,0.3,0.7c0.2,0.2,0.5,0.3,1,0.4l1.4,0.3c0.9,0.2,1.5,0.5,1.9,0.9c0.4,0.4,0.6,0.9,0.6,1.5v0c0,0.5-0.2,1-0.5,1.4
		s-0.7,0.7-1.3,0.9s-1.1,0.3-1.8,0.3C1199.3,24.1,1198.6,24,1198.1,23.8z"/>
	<path class="st5" d="M1206,23.5c-0.4-0.4-0.6-1-0.6-1.9v-5h-1.3v-1.4h1.3v-2.3h1.8v2.3h1.6v1.4h-1.6v4.9c0,0.4,0.1,0.7,0.3,0.9
		c0.2,0.2,0.5,0.2,0.9,0.2c0.1,0,0.2,0,0.3,0c0.1,0,0.2,0,0.2,0V24c-0.1,0-0.2,0-0.4,0c-0.2,0-0.3,0-0.5,0
		C1207.1,24.1,1206.4,23.9,1206,23.5z"/>
</g>
</svg>
